<svg width="17" height="17" viewBox="0 0 17 17" fill="none" xmlns="http://www.w3.org/2000/svg">
<path d="M15.8167 16.3311C13.9648 16.3311 12.1352 15.9272 10.3278 15.1195C8.52037 14.3118 6.87593 13.1675 5.39444 11.6866C3.91296 10.2051 2.76867 8.56069 1.96156 6.75328C1.15444 4.94587 0.750593 3.11624 0.75 1.26439C0.75 0.997721 0.838889 0.775499 1.01667 0.597721C1.19444 0.419944 1.41667 0.331055 1.68333 0.331055H5.28333C5.49074 0.331055 5.67593 0.401573 5.83889 0.54261C6.00185 0.683647 6.09815 0.850166 6.12778 1.04217L6.70556 4.15328C6.73519 4.39031 6.72778 4.59031 6.68333 4.75328C6.63889 4.91624 6.55741 5.05698 6.43889 5.1755L4.28333 7.35328C4.57963 7.90142 4.93133 8.43091 5.33844 8.94172C5.74556 9.45254 6.19385 9.94528 6.68333 10.4199C7.14259 10.8792 7.62407 11.3053 8.12778 11.6982C8.63148 12.0911 9.16481 12.4502 9.72778 12.7755L11.8167 10.6866C11.95 10.5533 12.1242 10.4531 12.3393 10.3862C12.5544 10.3192 12.7654 10.3008 12.9722 10.3311L16.0389 10.9533C16.2463 11.0125 16.4167 11.1201 16.55 11.2759C16.6833 11.4318 16.75 11.6057 16.75 11.7977V15.3977C16.75 15.6644 16.6611 15.8866 16.4833 16.0644C16.3056 16.2422 16.0833 16.3311 15.8167 16.3311Z" fill="#C6542D"/>
</svg>
