<svg width="21" height="21" viewBox="0 0 21 21" fill="none" xmlns="http://www.w3.org/2000/svg">
<path d="M13.8337 1.76666H7.16699C3.83366 1.76666 2.16699 3.43333 2.16699 6.76666V17.6C2.16699 18.0583 2.54199 18.4333 3.00033 18.4333H13.8337C17.167 18.4333 18.8337 16.7667 18.8337 13.4333V6.76666C18.8337 3.43333 17.167 1.76666 13.8337 1.76666Z" stroke="#C6542D" stroke-width="1.5" stroke-linecap="round" stroke-linejoin="round"/>
<path d="M11.2583 6.63331L6.93332 10.9583C6.76666 11.125 6.60833 11.45 6.57499 11.6833L6.34166 13.3333C6.25833 13.9333 6.67499 14.35 7.27499 14.2666L8.92498 14.0333C9.15831 14 9.48333 13.8416 9.65 13.675L13.975 9.34998C14.7167 8.60831 15.075 7.74165 13.975 6.64165C12.875 5.53331 12.0083 5.88331 11.2583 6.63331Z" stroke="#C6542D" stroke-width="1.5" stroke-miterlimit="10" stroke-linecap="round" stroke-linejoin="round"/>
<path d="M10.6416 7.25C11.0083 8.55833 12.0333 9.59167 13.3499 9.95833" stroke="#C6542D" stroke-width="1.5" stroke-miterlimit="10" stroke-linecap="round" stroke-linejoin="round"/>
</svg>
