<svg width="21" height="21" viewBox="0 0 21 21" fill="none" xmlns="http://www.w3.org/2000/svg">
<path d="M18 5.08329C15.225 4.80829 12.4333 4.66663 9.65 4.66663C8 4.66663 6.35 4.74996 4.7 4.91663L3 5.08329" stroke="#737375" stroke-width="1.5" stroke-linecap="round" stroke-linejoin="round"/>
<path d="M7.58301 4.24166L7.76634 3.15C7.89967 2.35833 7.99967 1.76666 9.40801 1.76666H11.5913C12.9997 1.76666 13.108 2.39166 13.233 3.15833L13.4163 4.24166" stroke="#737375" stroke-width="1.5" stroke-linecap="round" stroke-linejoin="round"/>
<path d="M16.2087 7.71661L15.667 16.1083C15.5753 17.4166 15.5003 18.4333 13.1753 18.4333H7.82533C5.50033 18.4333 5.42533 17.4166 5.33366 16.1083L4.79199 7.71661" stroke="#737375" stroke-width="1.5" stroke-linecap="round" stroke-linejoin="round"/>
<path d="M9.1084 13.85H11.8834" stroke="#737375" stroke-width="1.5" stroke-linecap="round" stroke-linejoin="round"/>
<path d="M8.41699 10.5167H12.5837" stroke="#737375" stroke-width="1.5" stroke-linecap="round" stroke-linejoin="round"/>
</svg>
