<svg width="44" height="44" viewBox="0 0 44 44" fill="none" xmlns="http://www.w3.org/2000/svg">
<path d="M22.377 31.172C26.0876 31.172 29.0957 28.1639 29.0957 24.4532C29.0957 20.7426 26.0876 17.7345 22.377 17.7345C18.6663 17.7345 15.6582 20.7426 15.6582 24.4532C15.6582 28.1639 18.6663 31.172 22.377 31.172Z" stroke="#C6542D" stroke-width="2" stroke-linecap="round" stroke-linejoin="round"/>
<path d="M33.7988 20.422C35.3639 20.4194 36.9079 20.7825 38.3077 21.4824C39.7075 22.1823 40.9244 23.1997 41.8613 24.4533" stroke="#C6542D" stroke-width="2" stroke-linecap="round" stroke-linejoin="round"/>
<path d="M2.89258 24.4533C3.82951 23.1997 5.04641 22.1823 6.44622 21.4824C7.84604 20.7825 9.39004 20.4194 10.9551 20.422" stroke="#C6542D" stroke-width="2" stroke-linecap="round" stroke-linejoin="round"/>
<path d="M12.7021 37.2188C13.587 35.4066 14.9631 33.8793 16.6737 32.811C18.3842 31.7427 20.3604 31.1763 22.3771 31.1763C24.3939 31.1763 26.3701 31.7427 28.0806 32.811C29.7912 33.8793 31.1673 35.4066 32.0521 37.2188" stroke="#C6542D" stroke-width="2" stroke-linecap="round" stroke-linejoin="round"/>
<path d="M10.9547 20.422C9.9345 20.423 8.9351 20.1337 8.07325 19.5879C7.2114 19.042 6.52269 18.2621 6.08759 17.3394C5.65249 16.4167 5.48898 15.3892 5.61615 14.377C5.74332 13.3647 6.15593 12.4096 6.80577 11.6232C7.4556 10.8368 8.31583 10.2515 9.28592 9.93583C10.256 9.62013 11.2959 9.58704 12.2841 9.8404C13.2723 10.0938 14.168 10.6231 14.8666 11.3666C15.5651 12.1102 16.0376 13.0371 16.2289 14.0392" stroke="#C6542D" stroke-width="2" stroke-linecap="round" stroke-linejoin="round"/>
<path d="M28.5244 14.0392C28.7157 13.0371 29.1882 12.1102 29.8867 11.3666C30.5853 10.6231 31.481 10.0938 32.4692 9.8404C33.4574 9.58704 34.4973 9.62013 35.4674 9.93583C36.4375 10.2515 37.2977 10.8368 37.9475 11.6232C38.5974 12.4096 39.01 13.3647 39.1372 14.377C39.2643 15.3892 39.1008 16.4167 38.6657 17.3394C38.2306 18.2621 37.5419 19.042 36.6801 19.5879C35.8182 20.1337 34.8188 20.423 33.7986 20.422" stroke="#C6542D" stroke-width="2" stroke-linecap="round" stroke-linejoin="round"/>
</svg>
