<svg width="44" height="44" viewBox="0 0 44 44" fill="none" xmlns="http://www.w3.org/2000/svg">
<path d="M36.293 12.5314H6.73047C5.98834 12.5314 5.38672 13.133 5.38672 13.8751V35.3751C5.38672 36.1173 5.98834 36.7189 6.73047 36.7189H36.293C37.0351 36.7189 37.6367 36.1173 37.6367 35.3751V13.8751C37.6367 13.133 37.0351 12.5314 36.293 12.5314Z" stroke="#C6542D" stroke-width="2" stroke-linecap="round" stroke-linejoin="round"/>
<path d="M28.2305 36.7189V9.84387C28.2305 9.1311 27.9473 8.44753 27.4433 7.94352C26.9393 7.43952 26.2557 7.15637 25.543 7.15637H17.4805C16.7677 7.15637 16.0841 7.43952 15.5801 7.94352C15.0761 8.44753 14.793 9.1311 14.793 9.84387V36.7189" stroke="#C6542D" stroke-width="2" stroke-linecap="round" stroke-linejoin="round"/>
</svg>
