<?xml version="1.0" standalone="no"?>
<!DOCTYPE svg PUBLIC "-//W3C//DTD SVG 20010904//EN"
 "http://www.w3.org/TR/2001/REC-SVG-20010904/DTD/svg10.dtd">
<svg version="1.0" xmlns="http://www.w3.org/2000/svg"
 width="2250.000000pt" height="649.000000pt" viewBox="0 0 2250.000000 649.000000"
 preserveAspectRatio="xMidYMid meet">

<g transform="translate(0.000000,649.000000) scale(0.100000,-0.100000)"
fill="#000000" stroke="none">
<path d="M21096 6318 c-4 -95 -11 -252 -16 -348 -9 -169 -30 -697 -31 -756 -1
-348 1 -384 27 -437 27 -55 29 -111 8 -157 -7 -14 -19 -41 -28 -60 -8 -19 -20
-78 -26 -130 -10 -91 -26 -200 -36 -248 -2 -12 -21 -40 -40 -62 -46 -51 -83
-53 -153 -10 -79 49 -187 73 -406 91 -71 5 -184 14 -250 20 -111 9 -473 -1
-640 -17 -61 -5 -166 -35 -214 -60 -14 -8 -52 -14 -83 -14 -77 0 -98 -20 -98
-92 1 -29 7 -71 15 -93 8 -21 12 -41 10 -43 -7 -8 33 -76 65 -111 26 -28 32
-43 32 -75 -1 -22 7 -54 17 -71 10 -16 21 -46 25 -65 11 -58 38 -120 53 -120
16 0 28 -27 38 -89 6 -38 5 -43 -9 -38 -23 9 -26 -40 -7 -143 11 -61 27 -97
52 -120 10 -8 25 -28 35 -43 l17 -28 -29 7 c-50 12 -63 23 -75 67 -15 55 -46
117 -63 123 -8 3 -17 21 -20 40 -4 18 -16 38 -26 44 -11 6 -20 17 -20 24 0 7
-12 25 -26 40 -31 30 -130 230 -140 281 -3 19 -12 39 -20 46 -8 6 -14 19 -14
28 -1 23 -36 97 -58 121 -10 11 -19 33 -20 48 0 15 -11 50 -24 77 l-23 50 -3
-32 c-4 -43 -22 -42 -72 3 -21 20 -44 33 -49 29 -16 -9 -71 23 -80 48 -5 12
-37 55 -71 95 -58 69 -90 89 -90 58 0 -33 -22 -23 -103 44 -93 76 -113 85
-103 45 4 -14 4 -36 0 -50 -6 -26 -29 -34 -37 -12 -3 9 -9 7 -24 -5 -11 -11
-36 -18 -57 -18 -20 0 -47 -5 -58 -11 -14 -8 -23 -8 -31 0 -6 6 -32 11 -58 11
-26 0 -60 5 -76 11 -23 8 -44 5 -113 -17 -154 -49 -197 -74 -151 -89 21 -6 84
16 95 34 4 6 38 11 82 11 58 0 74 -3 74 -14 0 -10 13 -16 38 -18 l37 -3 -38
-17 c-47 -21 -163 -36 -153 -19 4 6 18 11 31 11 13 0 27 5 30 10 3 6 -5 10
-18 10 -36 0 -155 -38 -159 -51 -3 -10 -50 -13 -121 -10 -7 1 -17 11 -22 23
-12 27 -32 32 -92 23 -33 -5 -43 -10 -39 -21 3 -8 1 -14 -5 -14 -5 0 -22 -9
-37 -19 -15 -11 -43 -23 -64 -26 -32 -6 -38 -4 -59 24 -25 33 -50 39 -68 17
-18 -21 10 -70 49 -86 27 -11 33 -11 42 1 7 11 11 11 15 2 2 -7 11 -13 18 -13
20 0 28 -19 15 -34 -17 -22 0 -108 23 -112 10 -1 26 -11 35 -21 9 -10 25 -17
34 -15 12 2 15 -2 12 -15 -3 -12 5 -29 21 -45 42 -43 21 -62 -84 -77 -48 -7
-96 -11 -107 -9 -17 3 -16 6 11 33 17 17 40 35 50 42 19 11 19 11 1 19 -10 4
-27 2 -37 -4 -10 -7 -25 -12 -33 -12 -8 0 -17 -6 -20 -12 -3 -7 -4 -4 -3 6 1
10 -4 21 -10 23 -8 3 -13 -4 -13 -15 0 -13 -20 -31 -61 -55 -60 -36 -60 -36
-68 -14 -5 12 -7 25 -5 29 3 4 -6 10 -18 13 -13 4 -32 16 -43 26 -21 18 -21
18 -40 -14 -20 -33 -22 -37 -24 -62 -1 -10 -12 -15 -32 -15 l-30 0 20 26 c14
18 21 41 21 73 0 25 5 62 10 81 15 51 3 120 -21 120 -14 0 -19 -7 -19 -27 0
-16 -11 -39 -27 -55 -25 -26 -26 -29 -9 -47 19 -21 10 -33 -31 -39 -16 -2 -26
6 -38 28 -18 35 -55 42 -55 10 0 -33 -44 -36 -99 -6 -27 14 -54 26 -60 26 -15
0 -14 -25 2 -39 8 -6 24 -32 36 -58 13 -27 27 -55 32 -64 4 -9 6 -19 3 -22
-10 -10 -74 21 -94 46 -12 15 -26 27 -31 27 -13 0 -11 -47 4 -73 16 -30 27
-37 57 -37 17 0 29 -8 35 -22 8 -17 26 -27 77 -40 36 -9 75 -21 86 -27 12 -6
41 -11 65 -11 44 0 77 -21 77 -49 0 -16 37 -64 55 -71 27 -10 118 -104 131
-135 19 -46 9 -52 -143 -80 -200 -37 -275 -54 -313 -69 -19 -8 -64 -20 -98
-27 -36 -7 -66 -18 -69 -26 -7 -17 24 -245 38 -280 13 -35 11 -90 -3 -95 -7
-3 -47 -4 -88 -3 -69 2 -120 -8 -120 -25 0 -11 122 -55 145 -52 17 2 17 1 5
-8 -12 -8 -6 -10 23 -8 20 1 37 6 37 11 0 4 10 1 21 -7 20 -14 31 -12 76 9 2
1 -6 25 -17 53 -11 29 -20 59 -20 68 0 8 -7 23 -16 32 -15 15 -16 14 -10 -8 4
-20 3 -19 -9 5 -17 36 -19 55 -4 55 6 0 7 5 2 13 -4 6 -13 32 -19 57 -10 36
-9 51 2 81 8 20 14 42 12 49 -5 23 49 41 135 46 117 6 311 32 356 48 60 20 91
3 130 -76 41 -81 106 -158 133 -158 28 0 98 -41 98 -57 0 -10 12 -13 43 -11
29 2 41 7 39 17 -2 10 5 12 24 8 60 -11 68 11 24 63 -23 26 -30 44 -29 75 0
22 3 34 6 27 2 -7 13 -17 24 -23 32 -16 77 24 112 100 37 80 36 79 47 61 7
-11 12 -12 20 -4 9 9 6 25 -10 61 l-21 50 21 36 c18 30 28 37 54 37 32 0 85
-31 111 -67 17 -21 41 -92 49 -145 6 -32 15 -41 74 -77 56 -33 77 -41 118 -41
51 0 74 -12 74 -39 0 -8 6 -22 14 -30 15 -18 30 -111 17 -111 -5 0 -14 -27
-20 -60 -10 -48 -20 -68 -51 -100 -43 -44 -50 -46 -106 -27 -46 16 -124 11
-124 -8 0 -23 80 -103 144 -144 36 -22 67 -45 71 -51 17 -28 186 -86 277 -95
95 -10 154 7 234 66 65 48 97 59 109 39 3 -5 23 -10 43 -10 48 0 73 -18 107
-77 25 -41 26 -50 16 -78 -17 -49 -14 -54 37 -57 46 -3 49 -5 99 -73 62 -83
84 -94 155 -76 66 17 188 58 196 66 15 14 -21 24 -118 30 -99 6 -130 12 -104
22 35 12 99 50 102 60 3 12 -62 38 -75 30 -5 -3 -16 1 -26 8 -14 10 -16 21
-11 54 8 47 16 56 41 42 10 -5 62 -14 115 -20 54 -6 123 -19 155 -28 77 -23
177 -22 227 2 46 22 75 78 76 143 0 40 -5 47 -61 100 -33 31 -90 101 -125 155
-64 95 -66 97 -104 97 -46 0 -60 18 -60 80 0 33 11 58 54 124 64 98 133 160
201 182 47 15 56 15 114 0 35 -9 74 -25 88 -36 14 -11 30 -20 35 -20 20 0 130
-74 158 -107 37 -42 41 -76 21 -188 l-9 -50 45 -42 c25 -24 49 -43 54 -43 11
0 169 -101 203 -130 16 -14 44 -38 63 -54 28 -24 33 -35 33 -71 0 -26 -11 -68
-29 -106 -151 -335 -153 -340 -128 -356 46 -29 130 -53 206 -58 103 -7 243
-32 290 -51 50 -21 87 -67 94 -116 3 -23 2 -49 -3 -57 -4 -9 -11 -68 -15 -131
-8 -132 -27 -197 -49 -161 -3 4 -16 6 -30 4 -15 -3 -35 3 -53 16 -42 32 -120
11 -95 -25 4 -5 27 -20 52 -33 42 -21 48 -22 86 -9 54 19 79 9 94 -38 7 -21
29 -55 49 -77 20 -21 40 -49 44 -60 16 -43 -17 -137 -49 -137 -8 0 -14 3 -14
8 0 4 -15 14 -32 21 -18 8 -44 22 -58 31 -86 57 -111 70 -167 84 -109 28 -230
-2 -216 -54 16 -60 108 -102 263 -121 57 -6 118 -18 136 -25 37 -15 64 -49 64
-79 1 -33 38 -105 78 -150 46 -52 111 -141 126 -174 6 -14 31 -43 55 -66 24
-22 67 -63 95 -91 29 -28 67 -59 85 -70 18 -10 68 -66 111 -124 43 -58 102
-131 130 -162 l52 -58 217 0 218 0 6 147 c3 82 13 242 21 358 8 116 17 296 20
400 4 105 9 210 12 235 2 25 -1 79 -9 120 -11 62 -11 96 -1 195 7 66 13 163
14 215 0 52 5 114 10 138 6 24 15 116 20 205 6 89 14 182 19 207 5 24 10 157
10 295 1 154 7 285 16 340 15 102 31 346 46 710 5 138 14 315 19 395 5 80 9
253 9 385 1 132 6 332 11 445 6 113 12 250 15 305 2 55 7 147 10 205 10 165
64 933 75 1050 6 58 10 113 10 123 0 16 -39 17 -683 17 l-684 0 -7 -172z m349
1 c33 -5 98 -23 145 -38 47 -15 109 -34 139 -41 72 -17 100 -49 101 -111 0
-83 -43 -154 -100 -165 -28 -6 -46 0 -123 44 -21 12 -46 22 -56 22 -10 0 -38
10 -62 23 -48 23 -49 24 -117 36 -23 5 -49 17 -57 27 -23 32 -28 82 -11 116 9
17 16 39 16 50 0 32 23 59 45 53 11 -3 47 -10 80 -16z m652 -1268 c3 -22 -23
-36 -33 -19 -4 7 -3 13 3 15 6 2 8 14 6 26 -5 18 -3 20 8 10 7 -7 14 -21 16
-32z m-3810 -930 c34 -5 70 -14 80 -19 17 -10 17 -11 1 -17 -10 -4 -35 -6 -55
-5 -21 0 -70 1 -110 1 -52 1 -73 5 -77 15 -3 8 -16 14 -28 14 l-23 1 22 18
c18 15 30 17 75 10 29 -5 81 -13 115 -18z m-417 -80 c0 -6 -5 -13 -10 -16 -6
-4 -8 -11 -5 -16 9 -13 -19 -11 -33 3 -10 10 -7 15 10 25 28 15 38 16 38 4z
m-375 -81 c-3 -5 -15 -10 -26 -10 -11 0 -17 5 -14 10 3 6 15 10 26 10 11 0 17
-4 14 -10z m1165 -65 c7 -8 18 -15 24 -15 6 0 16 -4 22 -8 15 -9 28 -52 16
-52 -10 0 -92 76 -92 85 0 10 18 4 30 -10z m90 -25 c0 -5 -2 -10 -4 -10 -3 0
-8 5 -11 10 -3 6 -1 10 4 10 6 0 11 -4 11 -10z m-1893 -225 c12 -8 28 -12 37
-9 11 4 16 1 16 -10 0 -14 -12 -21 -24 -13 -2 1 -12 -6 -22 -15 -17 -14 -23
-15 -51 -3 -37 16 -41 31 -15 51 22 17 33 17 59 -1z m2328 -345 c3 -5 1 -10
-4 -10 -6 0 -11 5 -11 10 0 6 2 10 4 10 3 0 8 -4 11 -10z m35 -39 c15 -29 12
-41 -7 -34 -21 8 -33 23 -33 41 0 19 28 14 40 -7z m-1720 -372 c0 -31 -15 -47
-24 -24 -3 8 -12 15 -21 15 -20 0 -19 30 2 46 24 17 43 0 43 -37z m1756 -319
c2 -104 -32 -118 -36 -15 -4 71 -2 77 18 73 13 -3 17 -15 18 -58z m-106 -188
c0 -15 -2 -15 -10 -2 -13 20 -13 33 0 25 6 -3 10 -14 10 -23z m2952 -297 c12
-15 9 -44 -6 -78 -8 -18 -17 -39 -19 -47 -4 -9 -6 -7 -6 8 -1 12 -7 21 -13 20
-17 -4 -22 69 -8 106 9 25 12 27 28 15 9 -8 20 -18 24 -24z"/>
<path d="M5446 5291 c-6 -10 43 -46 51 -38 2 3 0 15 -7 26 -11 22 -35 28 -44
12z"/>
<path d="M5198 5225 c-12 -14 -30 -25 -40 -25 -23 0 -96 -18 -174 -42 -52 -16
-64 -25 -87 -61 -49 -77 -149 -170 -254 -235 -93 -59 -103 -68 -132 -125 -130
-256 -160 -308 -201 -351 -44 -46 -150 -126 -167 -126 -24 0 -123 -138 -123
-170 0 -7 -11 -25 -25 -42 -14 -16 -25 -37 -25 -46 0 -9 -18 -37 -39 -61 -33
-36 -40 -53 -46 -102 -4 -32 -4 -71 0 -88 10 -46 -18 -93 -117 -195 -78 -80
-88 -94 -84 -118 3 -16 9 -42 12 -59 6 -27 1 -35 -54 -86 -35 -32 -63 -67 -67
-82 -3 -15 -23 -45 -45 -67 -22 -21 -39 -48 -40 -58 0 -11 -11 -52 -25 -93
-21 -59 -23 -77 -14 -94 6 -13 8 -39 4 -65 -5 -35 -11 -45 -30 -50 -13 -3 -31
-14 -41 -25 -9 -10 -23 -19 -30 -19 -19 0 -56 -77 -49 -101 4 -13 -3 -32 -22
-57 -15 -20 -36 -53 -46 -73 -11 -20 -30 -42 -43 -48 -13 -6 -24 -16 -24 -22
0 -6 -14 -10 -32 -9 -53 3 -55 1 -23 -25 l30 -24 -30 -24 c-87 -71 -82 -64
-61 -80 19 -14 19 -18 6 -58 -8 -24 -13 -59 -11 -77 4 -53 -16 -92 -50 -93
-51 -2 -54 -4 -51 -24 6 -30 32 -55 59 -55 28 0 29 -10 4 -42 -18 -22 -35 -30
-136 -59 -46 -14 -100 -72 -121 -129 -10 -29 -27 -56 -38 -62 -58 -31 -69 -68
-21 -68 18 0 26 7 31 24 3 13 15 33 27 44 23 21 80 41 75 26 -5 -16 17 -16 27
0 6 10 5 23 -4 39 -7 13 -11 35 -9 48 2 19 11 25 48 31 25 5 62 13 82 20 55
16 69 7 56 -36 -10 -33 -38 -54 -62 -48 -4 2 -19 -4 -32 -13 -13 -8 -30 -15
-39 -15 -8 0 -15 -7 -15 -15 0 -8 5 -15 11 -15 5 0 7 -5 3 -11 -5 -8 0 -10 17
-6 13 3 41 9 63 13 l39 7 -24 -32 c-12 -17 -31 -33 -41 -37 -10 -3 -18 -13
-18 -23 0 -10 -8 -25 -18 -34 -25 -22 -101 -23 -117 -1 -9 13 -21 15 -53 9
-41 -7 -42 -8 -42 -44 0 -45 -25 -73 -55 -61 -37 15 -46 11 -43 -18 3 -23 -1
-27 -23 -30 -23 -3 -26 0 -22 21 3 13 -2 39 -10 58 -13 32 -13 35 12 56 l26
23 -27 0 c-24 0 -27 3 -24 28 2 16 15 53 29 83 14 30 27 77 29 104 3 44 1 50
-15 47 -10 -2 -25 2 -33 9 -10 8 -30 9 -67 4 -28 -5 -74 -9 -102 -11 -70 -3
-105 -16 -180 -65 -64 -43 -65 -43 -49 -68 12 -17 15 -37 11 -72 -10 -83 -36
-107 -142 -130 -107 -23 -125 -23 -152 2 -23 22 -25 30 -21 91 3 56 8 72 30
95 22 25 26 39 31 116 5 96 19 127 67 152 16 8 36 28 44 43 8 15 25 38 38 52
12 13 22 26 21 27 -12 13 6 17 57 15 33 -2 58 -8 54 -13 -9 -15 15 -10 43 8
20 13 50 18 129 19 66 0 109 5 118 13 8 7 19 10 24 7 11 -6 36 20 45 47 5 14
11 16 26 7 32 -16 41 -12 41 21 0 26 -3 30 -17 23 -32 -15 -213 -1 -213 16 0
8 66 20 111 20 14 0 38 9 52 20 14 12 40 20 61 20 24 0 36 5 36 14 0 12 18 22
60 31 21 6 40 35 40 64 -1 23 -2 24 -14 9 -14 -19 -59 -32 -181 -54 -138 -24
-384 -54 -447 -54 -45 0 -76 -7 -116 -26 l-54 -26 27 -28 28 -29 -27 -11 c-15
-5 -33 -10 -40 -10 -23 0 -56 -45 -71 -97 -11 -36 -31 -68 -68 -107 -49 -52
-56 -56 -98 -56 -37 0 -49 5 -71 30 -15 17 -28 38 -30 48 -2 11 -16 19 -40 23
-40 6 -83 31 -110 63 -34 41 -19 127 34 195 15 20 16 27 6 37 -15 16 -138 35
-169 27 -18 -5 -20 -11 -15 -42 3 -20 6 -48 6 -64 0 -16 10 -36 25 -49 15 -13
25 -32 25 -49 0 -19 6 -28 22 -33 21 -5 17 -11 -47 -71 -60 -57 -76 -66 -110
-68 -30 -1 -46 4 -63 21 -24 24 -52 28 -70 10 -6 -6 -33 -15 -59 -19 -59 -10
-953 20 -969 33 -7 5 -17 29 -23 53 -6 25 -13 45 -16 45 -3 0 -5 -39 -5 -86
l0 -87 198 9 c108 5 247 8 307 7 61 -1 207 -3 326 -5 164 -2 220 -6 232 -17
14 -11 23 -11 57 3 29 12 73 16 160 16 109 0 157 -10 113 -24 -10 -3 -31 -22
-48 -43 -48 -59 -70 -77 -130 -108 -52 -26 -60 -27 -91 -16 -30 11 -38 10 -63
-6 -15 -10 -44 -29 -64 -41 -21 -13 -37 -28 -37 -33 0 -4 18 -13 40 -19 46
-12 56 -35 47 -103 -5 -34 -15 -51 -60 -92 -43 -41 -55 -58 -60 -93 -6 -35
-11 -42 -30 -42 -13 0 -29 -6 -35 -12 -10 -10 -17 -10 -32 0 -11 6 -31 12 -45
12 -30 0 -33 20 -5 38 11 7 20 18 20 26 0 18 -64 25 -235 26 -268 1 -333 10
-406 60 -54 36 -57 36 -69 6 -6 -17 -22 -29 -50 -37 l-40 -12 0 -163 0 -164
25 10 c14 5 54 12 89 16 58 6 65 5 85 -17 12 -13 28 -31 36 -40 8 -8 19 -39
26 -67 7 -33 24 -69 45 -95 58 -72 115 -161 121 -189 6 -30 47 -62 68 -54 8 3
21 19 30 37 16 30 16 35 -5 99 -12 37 -20 82 -18 101 3 33 4 34 46 34 31 0 42
4 42 15 0 12 2 13 9 1 5 -7 13 -11 17 -9 5 3 33 2 62 -2 29 -3 55 -3 58 2 8
13 41 9 58 -8 12 -12 16 -12 17 -2 1 7 4 0 8 -17 4 -16 4 -106 1 -200 -3 -93
-2 -188 3 -209 11 -52 -1 -141 -22 -168 -12 -14 -33 -22 -69 -26 -53 -5 -104
7 -222 50 -47 18 -80 20 -235 21 -99 0 -201 -3 -227 -7 l-48 -8 0 -167 0 -168
173 -9 c94 -4 233 -9 307 -9 74 -1 225 -7 335 -13 546 -33 1014 -42 1016 -19
3 46 8 61 23 72 26 20 11 65 -24 72 -20 4 -33 16 -46 44 -17 39 -17 42 6 141
l24 101 -26 21 c-38 31 -50 83 -53 234 -1 75 -6 158 -10 184 -5 30 -3 58 4 76
13 31 88 81 165 109 45 17 73 43 81 75 13 54 18 60 44 53 14 -3 32 -13 40 -20
12 -12 18 -12 41 0 14 7 32 20 39 28 7 9 30 15 59 16 26 0 72 9 102 21 30 11
56 20 58 20 1 0 2 10 1 23 -6 62 0 72 50 95 27 12 54 22 60 22 6 0 11 5 11 10
0 15 62 12 95 -6 17 -8 42 -16 58 -16 23 -1 26 -4 21 -21 -4 -14 2 -26 22 -42
21 -16 25 -26 20 -41 -6 -12 -10 -15 -13 -6 -6 17 -38 15 -53 -3 -7 -8 -9 -15
-4 -15 5 0 8 -30 8 -66 -2 -57 1 -67 17 -71 15 -4 19 -15 19 -48 0 -37 -6 -50
-40 -87 -46 -50 -54 -73 -48 -133 6 -51 24 -73 67 -81 28 -6 31 -4 31 20 0 18
-12 39 -35 60 -39 37 -39 58 0 79 30 16 105 85 105 96 0 16 44 21 53 6 4 -8
16 -15 25 -15 10 0 13 -3 7 -8 -15 -10 -35 -59 -35 -83 0 -11 6 -30 13 -42 17
-30 15 -89 -3 -104 -13 -11 -13 -12 4 -13 12 0 16 -5 12 -16 -3 -9 -6 -22 -6
-29 0 -16 -25 -26 -46 -18 -11 4 -13 13 -8 35 l6 30 -43 -7 c-59 -9 -70 -26
-66 -102 3 -59 2 -64 -20 -69 -13 -4 -32 -4 -43 -1 -11 3 -23 1 -26 -4 -3 -5
4 -9 14 -9 11 0 32 -7 48 -15 16 -8 38 -12 51 -9 28 8 42 -20 24 -49 -10 -16
-10 -21 0 -28 15 -9 29 -3 29 14 0 7 7 20 15 31 13 17 15 16 30 -19 9 -23 13
-51 9 -70 -4 -22 -1 -35 10 -44 14 -12 19 -7 37 35 24 54 34 64 64 64 18 0 55
-31 55 -45 0 -3 -16 -21 -35 -41 -39 -40 -40 -56 -1 -30 14 9 32 16 41 16 9 0
18 8 22 18 19 52 167 208 208 218 15 4 25 13 25 25 0 10 9 23 19 29 11 5 28
24 38 40 9 17 23 30 31 30 7 0 39 27 70 60 62 64 82 73 82 38 0 -12 8 -30 17
-40 16 -18 15 -21 -27 -58 -25 -21 -67 -47 -94 -57 -56 -20 -122 -84 -131
-125 -4 -15 -20 -38 -37 -50 -94 -71 -119 -115 -124 -222 l-5 -81 45 -55 c49
-61 89 -78 194 -82 58 -1 68 3 58 27 -4 13 -13 15 -36 10 -21 -5 -45 1 -82 19
-73 34 -84 46 -97 93 -10 37 -9 47 15 98 32 68 44 73 176 85 91 8 102 11 155
47 32 22 67 56 78 75 25 45 79 128 97 148 30 35 60 118 84 229 8 40 19 81 24
90 20 40 51 120 66 171 16 57 72 178 86 186 5 3 8 23 8 45 0 52 9 68 71 126
52 49 89 71 89 52 0 -19 -52 -124 -78 -159 -25 -32 -27 -43 -28 -136 -2 -113
-22 -198 -58 -241 -23 -28 -46 -66 -46 -77 0 -18 39 0 79 36 69 64 95 122 105
238 10 123 16 141 66 189 26 25 64 59 84 74 42 34 47 57 12 57 -41 0 -42 21
-3 53 55 44 48 55 -20 30 -8 -3 -13 4 -13 19 0 16 21 45 65 88 36 35 65 69 65
74 0 25 156 106 205 106 28 0 42 7 66 35 29 33 35 35 90 35 107 0 135 -33 80
-91 -30 -31 -127 -69 -177 -69 -30 0 -141 -53 -166 -80 -36 -38 -20 -50 36
-26 30 12 51 9 75 -10 6 -5 -42 -43 -55 -44 -6 0 -34 -17 -62 -39 -41 -30 -49
-40 -36 -45 21 -8 72 1 146 25 32 11 69 19 83 19 33 0 138 53 191 96 82 66
138 106 181 131 l44 24 72 -59 c98 -80 115 -90 189 -111 65 -19 134 -50 178
-82 14 -9 56 -29 92 -44 42 -17 83 -43 114 -73 57 -55 114 -126 114 -141 0 -6
4 -11 9 -11 4 0 16 -21 26 -47 21 -56 34 -75 46 -67 21 13 1 144 -23 144 -5 0
-6 5 -3 10 3 6 -1 10 -10 10 -9 0 -15 6 -12 13 2 6 19 12 37 12 33 0 35 2 43
45 4 25 11 52 14 60 3 8 5 20 4 27 -1 7 8 17 19 23 11 6 20 20 20 31 0 16 4
19 20 14 32 -10 43 4 26 31 -9 13 -16 31 -16 41 0 10 -6 27 -14 38 -7 11 -17
50 -20 88 -8 72 -1 81 45 57 17 -10 19 -7 19 24 0 25 -6 38 -20 46 -28 15 -25
40 8 71 27 26 52 28 52 4 0 -11 39 -29 47 -22 1 2 4 19 5 38 3 33 2 34 -34 34
-21 0 -38 5 -38 10 0 6 17 10 38 10 20 0 37 5 37 11 0 6 8 19 19 29 18 19 18
19 -3 33 -41 28 -17 52 52 52 30 0 37 -23 11 -38 -13 -7 -15 -17 -9 -48 l7
-38 18 52 c10 28 25 66 34 83 15 30 13 79 -4 79 -8 0 -23 -27 -24 -45 -1 -5
-9 -11 -18 -13 -25 -5 -23 32 3 56 l20 19 -28 30 c-33 33 -125 140 -135 157
-4 6 -8 22 -8 36 0 16 -12 35 -36 55 -25 21 -53 66 -94 150 -56 114 -71 164
-85 282 -4 29 -11 55 -16 59 -19 11 -9 76 16 106 14 16 25 38 25 49 0 28 15
54 70 124 26 33 51 71 55 85 4 14 17 39 29 55 13 17 25 38 29 48 3 9 11 17 16
17 5 0 19 21 31 48 13 26 36 76 53 111 34 72 43 131 29 183 -11 42 2 124 24
146 8 7 14 17 14 22 0 5 17 26 38 47 33 34 43 38 101 43 40 3 66 10 69 18 2 7
0 12 -5 11 -20 -3 -23 2 -12 23 7 12 12 31 13 42 1 13 9 22 21 24 47 7 62 13
90 38 69 61 104 66 138 19 21 -28 47 -33 47 -10 0 23 -30 65 -46 65 -8 0 -19
11 -23 24 -10 24 -29 36 -59 36 -8 0 -24 7 -34 17 -10 9 -28 21 -41 27 -14 7
-23 22 -25 41 -2 17 -8 34 -13 39 -5 6 -9 18 -9 27 0 10 -6 24 -13 31 -17 18
-37 65 -37 88 0 14 -7 20 -23 20 -16 0 -28 9 -35 25 -15 33 -30 32 -81 -5 -23
-17 -46 -28 -51 -25 -5 3 -14 22 -21 43 -14 44 -20 48 -76 57 -37 5 -49 14
-81 54 -20 27 -42 57 -48 67 -10 16 -13 17 -28 5 -9 -7 -16 -24 -16 -37 0 -39
-18 -27 -25 15 -11 68 -84 95 -124 47 -26 -31 -51 -14 -51 35 0 17 -6 20 -32
17 -29 -3 -66 -38 -80 -78 -2 -5 -15 -12 -31 -15 -24 -6 -29 -3 -42 29 -15 36
-12 78 8 103 6 9 4 14 -9 19 -58 18 -105 46 -114 69 -9 23 -44 45 -72 45 -7 0
-8 -14 -4 -39 4 -24 2 -42 -5 -46 -17 -11 -59 4 -59 21 0 20 -45 64 -65 64 -8
0 -25 -11 -37 -25z m64 -205 c-5 -33 -25 -55 -42 -45 -17 11 -11 42 13 58 31
22 34 21 29 -13z m-42 -85 c0 -8 -7 -15 -15 -15 -9 0 -12 6 -9 15 4 8 10 15
15 15 5 0 9 -7 9 -15z m1000 -401 c0 -8 -5 -12 -10 -9 -6 4 -8 11 -5 16 9 14
15 11 15 -7z m-1667 -102 c7 -10 -30 -83 -53 -107 -28 -28 -25 -3 5 45 14 22
25 46 25 55 0 16 15 21 23 7z m1131 -228 c9 -24 7 -28 -9 -14 -17 14 -20 30
-6 30 5 0 12 -7 15 -16z m194 -158 c7 -7 14 -22 17 -35 2 -12 7 -31 10 -41 4
-13 -1 -22 -14 -30 -17 -9 -26 -5 -56 25 -36 37 -48 88 -22 98 16 7 49 -2 65
-17z m-1930 -711 c2 -12 -6 -26 -20 -34 -13 -8 -33 -21 -45 -29 -21 -13 -23
-13 -23 6 0 27 49 84 69 80 9 -2 17 -12 19 -23z m-318 -334 c0 -22 -16 -36
-24 -22 -8 12 3 41 15 41 5 0 9 -9 9 -19z m-36 -75 c-7 -17 -34 -23 -34 -6 0
9 32 31 38 26 1 -2 0 -11 -4 -20z m112 -127 c9 -15 -55 -79 -72 -72 -20 7 -17
32 4 40 9 4 23 15 30 25 15 20 28 23 38 7z m-246 -68 c0 -23 -6 -31 -30 -40
-28 -9 -60 -6 -60 6 0 10 24 48 34 55 6 4 21 8 34 8 18 0 22 -6 22 -29z m224
-79 c-5 -4 -14 -20 -19 -37 -6 -16 -18 -31 -28 -33 -20 -4 -23 21 -4 40 7 7
19 28 27 47 13 33 14 34 24 12 6 -14 6 -25 0 -29z m-194 -5 c0 -21 -30 -57
-48 -57 -9 0 -32 -9 -49 -20 -37 -22 -40 -17 -17 28 9 19 23 32 35 32 10 0 19
4 19 10 0 5 6 7 14 4 8 -3 17 -1 21 5 9 15 25 14 25 -2z m-55 -149 c-2 -50
-16 -88 -39 -107 -9 -7 -16 -19 -16 -25 0 -6 -11 -21 -24 -34 -24 -22 -25 -22
-31 -2 -4 13 1 31 14 49 25 35 26 47 6 55 -8 3 -15 2 -15 -3 0 -4 -19 -20 -42
-35 -39 -24 -70 -60 -105 -120 -7 -12 -13 -15 -13 -8 0 6 -4 12 -10 12 -5 0
-10 -7 -10 -15 0 -31 -15 -14 -17 20 -2 27 2 38 22 51 25 16 34 44 15 44 -5 0
-10 7 -10 15 0 15 15 19 57 15 27 -2 95 50 88 68 -3 9 3 10 20 6 19 -5 33 1
60 25 20 17 39 31 44 31 5 0 8 -19 6 -42z m-105 12 c0 -5 -4 -10 -10 -10 -5 0
-10 5 -10 10 0 6 5 10 10 10 6 0 10 -4 10 -10z m953 -149 c-14 -98 -61 -129
-54 -36 2 21 19 61 35 83 15 20 25 -5 19 -47z m-1975 -218 c-10 -2 -26 -2 -35
0 -10 3 -2 5 17 5 19 0 27 -2 18 -5z m1852 -77 c0 -12 -40 -46 -55 -46 -12 0
-3 34 13 46 22 17 42 18 42 0z m-196 -228 c-11 -38 -43 -77 -96 -119 -47 -37
-88 -51 -88 -29 0 6 4 10 9 10 16 0 57 42 74 75 19 37 53 69 65 61 6 -3 12 1
16 9 9 25 28 18 20 -7z m-754 -3 c0 -19 -37 -43 -79 -51 -31 -7 -32 -6 -20 14
13 20 63 50 87 51 6 1 12 -6 12 -14z m595 -5 c0 -19 -78 -62 -99 -54 -28 11
-17 34 27 54 47 22 72 22 72 0z m-1736 -354 c6 -7 14 -33 17 -58 6 -40 3 -49
-22 -77 -30 -32 -41 -35 -110 -33 -56 3 -72 18 -79 77 -6 45 -4 51 17 64 21
14 112 38 149 40 9 1 22 -5 28 -13z m1491 -51 c15 -18 6 -45 -15 -45 -18 0
-30 24 -21 45 7 19 20 19 36 0z m-3102 -47 c8 -8 15 -8 26 1 19 16 148 11 171
-6 15 -10 13 -12 -16 -18 -61 -11 -322 -1 -326 12 -3 8 16 13 59 16 35 2 65 4
69 5 3 1 10 -3 17 -10z m2435 -24 c3 -4 1 -16 -5 -27 -10 -19 -11 -19 -20 -3
-7 13 -17 16 -34 12 -23 -6 -32 3 -17 17 8 9 68 9 76 1z m542 -54 c7 -11 -52
-43 -65 -35 -14 9 -12 32 3 38 21 9 56 7 62 -3z m-2977 -163 c2 -18 -1 -27
-11 -27 -15 0 -27 20 -27 47 0 27 35 9 38 -20z m2492 -36 c0 -18 -42 -61 -61
-61 -18 0 -18 1 -1 35 12 24 24 35 40 35 12 0 22 -4 22 -9z m117 -499 c2 -31
-51 -107 -68 -97 -20 13 -9 67 20 96 37 36 45 36 48 1z m-269 -18 c-3 -19 -34
-41 -43 -32 -4 3 -2 16 5 27 13 25 43 28 38 5z m-1760 -4 c19 0 14 -64 -7 -88
-27 -32 -69 -29 -78 6 -9 34 -5 52 15 75 10 11 24 16 37 13 11 -3 26 -6 33 -6z
m2372 -36 c0 -8 -4 -12 -10 -9 -5 3 -10 10 -10 16 0 5 5 9 10 9 6 0 10 -7 10
-16z"/>
<path d="M13104 5227 c-25 -14 -21 -37 7 -37 10 0 42 -18 71 -40 29 -22 59
-40 66 -40 14 0 13 31 -1 41 -12 9 13 45 41 60 23 13 23 13 2 21 -31 12 -162
8 -186 -5z"/>
<path d="M13530 5180 c0 -5 -13 -10 -29 -10 -16 0 -40 -6 -54 -13 l-26 -14 29
-34 c40 -46 38 -59 -5 -52 -28 4 -35 2 -35 -11 0 -16 -11 -20 -39 -17 -7 2
-10 -2 -7 -7 4 -6 -3 -8 -16 -5 -18 5 -13 -4 25 -42 26 -27 47 -56 47 -65 0
-9 5 -21 12 -28 20 -20 -12 -15 -55 8 -28 15 -48 19 -73 14 -19 -3 -34 -10
-34 -15 0 -5 -7 -6 -15 -3 -8 4 -21 1 -29 -5 -7 -6 -16 -8 -20 -4 -4 4 -9 -3
-13 -15 -6 -25 -4 -25 -37 -13 -19 8 -30 6 -49 -10 -14 -10 -34 -19 -45 -19
-12 0 -23 -9 -27 -20 -9 -29 -25 -25 -38 11 -11 29 -14 30 -62 25 -27 -2 -55
0 -61 5 -13 10 -44 2 -44 -12 0 -7 -58 -2 -68 6 -2 1 5 21 14 44 21 53 14 74
-21 61 -21 -8 -27 -7 -32 8 -3 9 -8 20 -9 23 -4 8 145 126 190 151 l31 17 -78
1 c-72 0 -80 -2 -104 -27 -14 -16 -29 -27 -34 -25 -5 1 -9 -2 -9 -7 0 -5 -18
-28 -40 -52 -21 -24 -37 -45 -35 -47 2 -3 -6 -12 -18 -22 -18 -15 -19 -20 -8
-33 10 -13 4 -27 -43 -89 -30 -41 -73 -107 -94 -148 -21 -41 -51 -97 -67 -124
-20 -35 -40 -100 -67 -220 -34 -151 -39 -196 -49 -386 -5 -118 -13 -231 -17
-250 -8 -35 -8 -35 -64 -38 -66 -3 -81 -19 -91 -92 -3 -25 -9 -55 -12 -66 -9
-29 22 -57 99 -87 l61 -25 15 -58 c9 -39 16 -51 18 -36 2 12 7 22 11 22 10 0
43 -129 36 -140 -3 -6 -21 -9 -38 -7 -30 2 -32 0 -35 -32 -2 -19 -10 -44 -17
-55 -8 -11 -17 -46 -21 -78 -4 -33 -14 -69 -24 -80 -15 -19 -15 -25 -4 -47 17
-34 28 -64 26 -73 -1 -5 2 -8 6 -8 16 0 5 -45 -11 -48 -9 -2 -17 -8 -17 -13 0
-12 17 -12 25 1 3 6 14 10 23 10 13 0 12 -5 -8 -20 -15 -12 -18 -18 -8 -14 12
4 20 0 25 -12 4 -10 2 -19 -3 -21 -6 -2 16 -31 49 -66 33 -34 64 -66 68 -72
36 -41 78 -79 101 -91 15 -8 32 -23 38 -34 9 -16 5 -26 -22 -54 -27 -28 -42
-35 -82 -39 -34 -3 -53 -10 -62 -23 -25 -37 -48 -54 -71 -54 -14 0 -23 -6 -23
-15 0 -9 9 -15 23 -15 16 0 18 3 9 9 -10 6 -9 10 7 14 12 3 19 1 15 -4 -3 -5
1 -9 8 -9 10 0 10 -2 -1 -9 -10 -7 7 -21 65 -52 56 -31 109 -73 185 -146 58
-57 109 -100 114 -95 4 4 5 1 1 -5 -4 -7 4 -27 17 -45 14 -18 32 -58 42 -88
30 -94 40 -94 68 1 25 82 50 189 53 219 1 8 4 22 6 30 30 82 49 152 66 240 22
108 52 272 56 303 1 9 8 23 14 29 20 20 14 28 -22 28 -21 0 -36 6 -40 15 -3 8
-15 15 -26 15 -11 0 -24 8 -27 18 -4 9 -11 20 -17 24 -7 5 -6 8 3 8 11 0 11 3
1 15 -22 27 0 36 27 10 20 -18 30 -21 40 -13 18 15 16 31 -7 61 -28 35 -25 38
16 16 25 -12 43 -32 57 -61 19 -41 20 -42 26 -18 9 32 -5 73 -44 130 -17 25
-37 61 -45 80 -7 19 -16 39 -20 43 -4 4 -3 29 1 55 16 97 15 101 -71 207 -49
61 -102 141 -134 205 -29 58 -70 129 -89 159 -20 30 -34 57 -32 61 3 4 24 4
47 -1 108 -21 234 -1 275 43 12 13 30 47 40 77 31 93 74 94 137 6 57 -80 89
-97 195 -103 95 -5 170 8 233 39 38 19 50 43 64 129 4 26 26 58 84 119 l78 84
6 -40 c13 -77 -21 -260 -55 -298 -5 -5 -9 -15 -9 -22 0 -7 -9 -32 -19 -56 -11
-23 -25 -60 -32 -82 -32 -103 -53 -156 -65 -166 -8 -6 -14 -18 -14 -25 0 -8
-4 -14 -8 -14 -8 0 -82 -95 -82 -104 0 -3 -22 -39 -50 -79 -52 -77 -56 -86
-41 -115 5 -9 14 -29 20 -44 6 -16 18 -28 27 -28 10 0 14 -6 11 -14 -4 -11 2
-14 24 -14 31 1 79 -35 79 -59 0 -16 26 -17 35 -2 11 16 34 -22 35 -57 0 -17
-3 -33 -6 -37 -14 -14 -13 -101 2 -133 9 -18 13 -38 9 -43 -3 -6 2 -11 11 -11
16 0 16 -1 1 -18 -19 -21 -22 -42 -7 -42 41 0 167 165 202 265 l18 50 -6 -64
c-3 -36 -12 -77 -20 -92 -18 -36 -18 -63 1 -79 8 -7 15 -29 15 -49 0 -20 7
-49 15 -65 8 -15 15 -39 15 -52 0 -13 6 -24 13 -24 23 0 44 -32 83 -125 21
-50 46 -102 56 -117 11 -16 18 -44 18 -71 0 -56 15 -97 34 -97 8 0 16 -5 18
-11 4 -13 38 0 38 15 0 7 13 30 29 52 29 39 29 41 16 84 -7 25 -19 72 -25 105
-7 33 -20 67 -29 75 -10 9 -17 35 -18 67 -3 57 11 70 27 28 5 -14 21 -30 35
-35 14 -5 25 -15 25 -22 3 -68 10 -122 25 -171 16 -57 17 -58 36 -41 15 13 17
19 7 26 -10 6 -8 8 5 8 9 0 17 5 17 10 0 6 -4 10 -8 10 -4 0 -9 30 -10 66 -2
37 -12 94 -23 128 -22 64 -49 200 -46 230 2 17 -27 46 -36 36 -2 -3 0 -36 6
-73 8 -50 7 -71 -1 -79 -17 -17 -27 -2 -42 65 -9 41 -10 63 -3 80 9 20 7 25
-23 45 -19 12 -38 22 -42 22 -11 0 -27 33 -47 95 -20 66 -36 96 -47 89 -4 -3
-8 22 -8 54 0 42 5 63 16 72 8 8 21 27 28 44 18 44 80 103 84 81 2 -9 -1 -30
-7 -46 -9 -26 -7 -34 11 -52 20 -21 20 -21 13 -2 -12 31 -8 51 19 112 14 30
26 62 26 69 0 8 8 22 18 32 21 21 38 92 52 211 8 74 6 106 -20 270 -16 102
-30 202 -30 221 0 52 -27 171 -67 295 -19 60 -38 120 -41 132 -4 12 -41 92
-82 177 -61 125 -80 156 -99 161 -17 4 -21 9 -13 14 10 6 9 11 -3 21 -8 7 -15
22 -15 34 0 37 -91 149 -218 269 -70 64 -92 78 -92 57z m3 -155 c10 -14 14
-25 10 -25 -13 1 -53 37 -53 49 0 16 23 3 43 -24z m-65 -654 c67 -10 109 -24
122 -40 3 -4 18 -11 34 -16 31 -11 60 -57 70 -112 4 -25 0 -39 -20 -62 -17
-20 -23 -37 -19 -50 3 -11 0 -25 -8 -33 -11 -9 -12 -17 -4 -30 15 -22 8 -27
-26 -21 -19 4 -26 10 -23 19 4 10 -3 14 -22 13 -22 0 -24 -2 -8 -8 17 -6 15
-9 -12 -20 -17 -7 -37 -9 -44 -5 -25 16 -104 22 -163 12 -33 -5 -73 -11 -90
-12 -41 -4 -120 -25 -180 -47 -54 -20 -74 -19 -240 7 -73 12 -130 15 -210 10
l-111 -6 -1 53 c0 28 -4 90 -8 137 l-7 85 31 29 c17 17 31 27 31 23 0 -4 21 4
46 18 26 15 61 25 82 25 20 0 107 4 192 10 85 5 183 11 218 13 35 2 68 9 74
15 13 13 195 9 296 -7z m-55 -407 c8 -8 -11 -45 -32 -62 -14 -11 -13 -12 9 -7
43 11 114 47 127 64 11 15 13 15 28 0 22 -22 26 -149 6 -173 -31 -37 -94 -59
-178 -64 -107 -6 -146 2 -189 40 -41 37 -72 88 -52 88 9 0 8 3 -2 10 -13 8
-13 10 0 10 12 0 12 3 -2 16 -15 15 -15 18 0 34 19 20 55 40 71 40 6 0 11 -9
11 -21 0 -16 5 -20 28 -17 21 2 26 8 24 23 -3 17 0 16 22 -8 22 -24 31 -27 59
-21 33 7 47 19 47 42 0 13 13 16 23 6z m-773 -32 c0 -11 11 -24 25 -30 34 -16
35 -15 35 8 0 28 24 25 44 -6 22 -33 76 -31 91 4 10 22 32 25 28 4 -2 -7 12
-11 34 -9 33 2 38 -1 46 -29 13 -43 -15 -138 -46 -159 -57 -37 -258 -38 -294
-2 -13 13 -63 177 -63 206 0 26 9 31 57 31 35 0 43 -3 43 -18z m-418 -314
c-13 -13 -26 8 -17 30 6 16 7 16 17 -1 7 -13 7 -22 0 -29z m1522 -122 c-3 -9
-10 -16 -15 -16 -11 0 -12 43 -2 54 10 10 24 -20 17 -38z m-1437 -148 c-3 -8
-6 -5 -6 6 -1 11 2 17 5 13 3 -3 4 -12 1 -19z m1587 -717 c7 -11 -14 -20 -31
-13 -7 2 -10 8 -7 13 7 12 31 12 38 0z m-1414 -359 c0 -14 -11 -21 -26 -15
-21 8 -17 23 6 23 11 0 20 -4 20 -8z"/>
<path d="M13340 4197 c-121 -47 -167 -70 -179 -88 -12 -20 -11 -21 11 -17 73
17 155 40 171 49 10 6 59 15 108 21 90 11 111 22 62 32 -74 14 -140 15 -173 3z"/>
<path d="M12630 4135 c-7 -9 -10 -18 -7 -22 8 -8 162 -33 205 -33 56 0 32 21
-53 47 -92 27 -128 29 -145 8z"/>
<path d="M12982 5091 c-60 -21 -67 -25 -57 -40 9 -16 51 -13 65 3 6 8 21 16
33 18 12 2 23 11 25 21 4 21 0 21 -66 -2z"/>
<path d="M10390 4953 c0 -5 6 -15 13 -22 10 -11 8 -13 -10 -8 -13 3 -26 1 -29
-4 -3 -5 -14 -9 -25 -9 -31 0 -17 -22 22 -36 19 -7 26 -13 17 -13 -10 -1 -18
-5 -18 -11 0 -12 27 -13 34 -1 10 16 43 0 55 -25 14 -32 14 -32 -6 -30 -27 2
-27 -33 -1 -62 l23 -26 -32 23 c-20 13 -33 17 -33 10 0 -8 -4 -8 -15 1 -19 16
-32 5 -16 -14 9 -11 8 -15 -5 -20 -11 -4 -15 -2 -11 8 7 18 -34 30 -45 13 -6
-9 -12 -8 -22 6 -17 21 -52 22 -64 1 -7 -13 -13 -14 -30 -5 -17 9 -25 6 -51
-21 -17 -18 -31 -40 -31 -49 0 -10 -3 -24 -6 -33 -4 -12 0 -16 15 -16 12 0 21
-5 21 -11 0 -6 -7 -9 -15 -6 -9 4 -23 -8 -39 -35 l-25 -41 3 37 c3 34 2 36
-14 21 -10 -9 -21 -28 -25 -43 -5 -20 -8 -23 -15 -12 -5 9 -5 20 2 28 8 9 8
16 0 24 -9 9 -12 7 -12 -10 0 -14 -5 -20 -14 -16 -7 3 -21 -2 -30 -11 -16 -16
-15 -19 9 -41 24 -22 24 -24 6 -24 -11 0 -23 5 -26 11 -4 6 -14 8 -22 5 -13
-5 -14 -1 -10 23 4 19 2 31 -6 35 -9 3 -9 5 1 5 10 1 10 4 0 15 -7 8 -16 12
-21 9 -4 -2 -26 -5 -48 -5 -39 0 -131 -27 -146 -41 -4 -4 3 -21 16 -37 12 -17
18 -30 14 -30 -4 0 -17 14 -28 30 -19 29 -45 40 -45 20 0 -5 -7 -10 -14 -10
-8 0 -52 -12 -96 -26 -61 -19 -80 -29 -76 -40 6 -16 -9 -19 -19 -4 -9 14 -37
12 -33 -2 5 -13 -39 -41 -51 -34 -4 3 -18 -4 -31 -14 -32 -24 -16 -43 37 -42
56 0 59 1 43 12 -13 8 -13 10 2 10 9 0 18 -5 20 -11 4 -11 160 17 250 45 26 8
50 11 53 7 2 -5 -13 -28 -35 -51 -21 -23 -42 -50 -45 -61 -4 -10 -11 -19 -16
-19 -6 0 -8 -4 -5 -9 4 -5 2 -11 -2 -13 -5 -1 -21 -34 -36 -72 -15 -38 -38
-84 -53 -102 -14 -19 -23 -41 -19 -49 3 -9 2 -13 -4 -10 -10 6 -30 -56 -30
-93 0 -12 -7 -33 -16 -46 -10 -16 -14 -38 -10 -65 5 -46 -14 -181 -25 -181 -7
0 -15 -33 -37 -152 -6 -29 -6 -50 0 -56 6 -6 7 -16 2 -24 -5 -7 -14 -38 -21
-68 -33 -159 -52 -238 -63 -265 -14 -34 -30 -160 -35 -280 -5 -128 -25 -324
-35 -351 -6 -14 -36 -64 -67 -112 -81 -122 -93 -147 -95 -195 -3 -113 59 -193
175 -225 20 -6 37 -8 37 -6 0 2 -24 29 -52 60 -58 61 -66 72 -78 115 -7 22 -5
29 5 29 7 0 16 -8 18 -17 4 -17 5 -17 6 0 0 10 -8 21 -18 25 -19 7 -18 10 13
77 19 40 51 87 75 110 23 22 52 57 63 78 12 20 25 37 29 37 6 0 39 98 90 272
12 42 26 75 31 72 5 -3 6 -81 4 -172 -4 -136 -2 -179 11 -229 14 -53 15 -66 4
-87 -15 -28 -8 -144 10 -179 6 -10 19 -47 28 -82 l17 -62 -30 -20 c-53 -35
-57 -36 -84 -22 -15 8 -29 16 -32 19 -13 13 -98 57 -120 62 -8 2 -22 16 -30
33 -17 34 -58 50 -46 19 22 -59 84 -114 127 -114 10 0 19 -5 19 -11 0 -6 6
-17 13 -24 34 -38 37 -46 31 -70 -5 -20 -2 -25 13 -25 25 0 43 -19 43 -46 0
-17 5 -21 19 -17 16 4 22 -3 31 -38 21 -77 13 -153 -37 -357 -17 -72 -23 -116
-19 -145 18 -114 18 -147 2 -147 -9 0 -16 6 -17 13 0 6 -3 21 -5 32 -3 11 -6
37 -7 58 -1 21 -3 33 -5 27 -2 -5 -8 -10 -13 -10 -4 0 -6 8 -2 18 4 12 3 14
-5 7 -7 -7 -7 -28 0 -69 8 -43 7 -60 -1 -66 -9 -5 -8 -10 4 -20 21 -18 19 -39
-4 -37 -11 1 -25 13 -31 27 -7 14 -19 39 -27 55 -17 33 -31 177 -17 174 20 -3
22 3 13 39 -18 72 -20 140 -3 184 8 24 26 76 39 116 12 40 28 78 34 86 14 16
-19 49 -44 44 -23 -4 -98 -131 -113 -191 -16 -64 -15 -134 3 -204 9 -32 18
-92 21 -133 8 -116 27 -161 86 -212 28 -24 54 -45 58 -48 19 -12 21 -113 6
-321 -23 -325 -37 -454 -52 -513 -8 -28 -14 -61 -14 -73 l0 -23 223 0 223 0
-7 52 c-4 29 -8 79 -8 110 -1 74 28 112 96 126 26 6 51 8 55 6 4 -3 8 6 8 20
0 76 226 136 510 136 197 0 305 -17 393 -62 22 -11 36 -14 32 -8 -11 18 -83
45 -155 59 -149 28 -158 35 -119 85 12 15 23 46 25 69 2 23 1 34 -2 25 -3 -10
-13 -18 -21 -18 -17 0 -173 152 -191 186 -13 25 -7 287 8 314 6 11 7 20 2 20
-5 0 -14 30 -21 67 -16 94 -40 165 -62 186 -14 13 -19 32 -19 72 0 51 1 54 18
44 46 -29 121 -175 122 -239 0 -20 2 -22 10 -10 5 8 10 42 10 75 0 49 -6 71
-30 115 -54 98 -108 216 -111 241 -1 13 1 34 5 47 10 29 -12 61 -27 40 -6 -9
-7 -8 -3 5 3 10 -1 29 -10 42 -20 30 -25 139 -9 162 11 15 15 12 37 -23 59
-93 187 -177 236 -155 12 6 33 11 46 11 13 0 28 6 34 13 8 9 1 11 -33 9 -96
-8 -213 112 -230 235 -5 42 -16 156 -18 188 -1 11 -7 26 -14 33 -7 7 -13 20
-13 29 0 11 6 9 20 -8 12 -15 19 -19 20 -10 0 7 -16 28 -36 46 -28 26 -32 34
-20 38 20 8 20 44 0 92 -9 21 -14 49 -11 61 6 35 -9 51 -17 17 l-8 -28 -13 25
c-9 16 -10 32 -4 48 13 34 11 37 -11 17 -18 -17 -19 -16 -24 6 -3 13 -7 48 -9
77 -4 50 -3 54 17 50 19 -4 21 0 18 33 -3 25 2 46 13 61 13 18 16 19 11 4 -4
-13 0 -24 15 -34 13 -9 19 -21 16 -33 -3 -10 11 -50 30 -89 26 -53 38 -69 47
-60 7 7 7 13 1 18 -13 9 -20 45 -39 202 -3 25 -10 70 -15 100 -5 30 -7 59 -6
65 2 5 6 22 9 37 4 19 16 30 41 38 19 6 35 15 35 20 0 13 -32 21 -45 10 -6 -5
-15 -7 -18 -3 -14 14 -6 22 27 28 l34 7 -24 35 c-13 20 -21 39 -18 44 3 5 -5
13 -18 18 -13 6 -17 10 -9 10 10 1 8 8 -8 25 l-22 23 24 5 c13 3 32 -1 41 -7
18 -14 22 -30 4 -19 -7 4 -8 3 -4 -4 4 -6 13 -9 20 -6 8 3 17 1 21 -5 3 -6 14
-11 23 -11 16 1 16 1 0 14 -11 8 -15 20 -11 36 4 16 3 21 -5 16 -18 -11 -52
31 -52 65 0 16 4 28 9 24 11 -6 24 26 29 74 1 8 10 11 22 8 11 -3 20 -1 20 4
0 5 11 14 25 19 24 9 37 50 15 50 -8 0 1 21 26 59 2 1 9 -1 16 -5 7 -5 40 -10
72 -11 40 -3 63 -9 71 -20 9 -12 14 -13 19 -4 4 6 2 18 -4 26 -9 11 -9 15 -1
15 6 0 11 -4 11 -9 0 -14 87 -51 119 -51 16 0 31 5 33 10 2 6 19 -1 38 -14 19
-13 55 -27 79 -31 l44 -7 -6 36 c-3 22 -2 34 4 31 19 -13 8 25 -12 39 -12 8
-19 21 -16 29 3 8 0 20 -6 26 -8 8 -8 11 0 11 11 0 28 -29 24 -44 -1 -5 6 -6
15 -2 10 4 25 -1 35 -10 11 -10 19 -13 19 -9 0 5 7 0 15 -11 10 -14 14 -15 15
-4 0 11 3 11 12 2 19 -19 28 -14 28 12 0 23 3 24 41 21 l41 -4 -6 37 -7 37 26
-28 c24 -27 28 -25 27 18 -1 17 0 17 4 3 3 -10 10 -18 16 -18 6 0 8 8 5 18 -3
9 -10 31 -15 48 -9 30 -9 31 17 26 l26 -5 -27 22 c-29 23 -43 27 -32 9 4 -7 3
-8 -4 -4 -7 4 -12 14 -12 22 0 8 -10 14 -25 14 -16 0 -25 6 -25 15 0 8 -5 15
-11 15 -7 0 -9 -10 -5 -27 6 -25 5 -26 -6 -8 -17 28 -35 45 -48 45 -6 0 -9 4
-6 9 3 5 -1 12 -9 15 -8 3 -14 9 -13 13 4 18 -15 62 -29 67 -11 5 -13 2 -8
-11 16 -41 23 -73 14 -68 -5 4 -9 12 -9 20 0 7 -16 30 -35 51 -34 35 -42 64
-36 127 2 10 -8 21 -23 27 -27 10 -35 30 -13 30 8 1 7 5 -3 13 -9 7 -14 20
-12 31 2 11 0 16 -6 12 -6 -3 -13 -2 -17 4 -3 5 -1 10 5 10 8 0 8 6 0 20 -6
11 -16 19 -23 17 -7 -1 -12 13 -14 36 -1 20 2 37 7 37 5 0 6 7 3 17 -4 11 -3
14 5 9 7 -4 15 -1 18 8 5 14 9 13 31 -4 26 -20 59 -28 49 -11 -9 13 26 23 38
11 5 -5 16 -10 24 -10 8 0 27 -9 43 -21 16 -11 41 -24 57 -29 15 -4 36 -11 47
-16 19 -7 19 -7 3 13 -10 11 -18 25 -18 32 0 7 -6 11 -13 8 -6 -2 -18 2 -25 9
-11 12 -10 14 5 14 16 1 16 2 -2 15 -11 8 -25 19 -32 24 -6 6 -24 13 -40 15
-42 8 -71 57 -40 69 6 3 3 6 -9 6 -11 1 -24 4 -28 8 -4 4 -42 6 -84 4 -80 -2
-153 19 -182 54 -12 15 -40 21 -40 9 0 -4 8 -13 18 -21 10 -8 3 -7 -18 3 -38
19 -110 26 -110 11 0 -5 9 -7 20 -4 11 3 20 1 20 -5 0 -6 6 -8 13 -5 8 3 20 1
28 -4 10 -6 6 -9 -14 -9 -33 0 -70 -17 -62 -30 3 -4 -6 -3 -20 3 -31 15 -32
27 -2 28 19 1 19 2 3 6 -12 3 -26 -3 -38 -18 -10 -13 -16 -17 -13 -8 4 10 0
19 -9 22 -10 4 -16 1 -16 -8 0 -12 -4 -12 -20 2 -24 21 -26 39 -4 47 22 9 26
8 18 -5 -10 -18 28 6 50 30 13 15 15 21 6 21 -7 0 -11 3 -7 6 3 3 12 2 19 -2
17 -11 39 -11 61 -1 20 9 23 33 5 41 -10 5 -10 7 -1 12 20 9 -3 45 -24 37 -12
-5 -14 -3 -7 8 12 19 14 40 4 34 -10 -6 -60 41 -52 49 3 3 -4 6 -16 6 -11 0
-24 5 -28 12 -5 8 -2 9 9 5 10 -3 17 -2 17 3 0 12 -49 46 -80 55 -14 4 -37 21
-52 37 -16 17 -28 27 -28 21z m100 -205 c0 -6 -7 -5 -15 2 -8 7 -15 17 -15 22
0 6 7 5 15 -2 8 -7 15 -17 15 -22z m110 -18 c0 -5 -2 -10 -4 -10 -3 0 -8 5
-11 10 -3 6 -1 10 4 10 6 0 11 -4 11 -10z m-70 -20 c8 -5 12 -11 9 -14 -3 -3
-14 1 -25 9 -21 16 -8 20 16 5z m-356 -35 c3 -8 0 -17 -6 -21 -6 -4 -8 -3 -5
3 4 6 0 13 -8 17 -8 3 -15 10 -15 15 0 14 27 2 34 -14z m116 -16 c11 -20 11
-20 -13 -5 -13 9 -27 13 -30 9 -4 -3 -7 -1 -7 5 0 20 39 13 50 -9z m160 -123
c0 -18 -19 -31 -28 -21 -4 4 -1 10 7 13 11 4 11 6 0 13 -11 7 -10 9 4 9 9 0
17 -6 17 -14z m-460 -12 c0 -8 -5 -12 -10 -9 -6 4 -8 11 -5 16 9 14 15 11 15
-7z m816 -5 c8 -14 -10 -11 -32 6 -18 13 -18 14 4 8 12 -3 25 -9 28 -14z
m-947 -2 c-2 -1 -13 -9 -24 -17 -19 -14 -19 -14 -6 3 7 9 18 17 24 17 6 0 8
-1 6 -3z m646 -7 c3 -5 1 -10 -4 -10 -6 0 -11 5 -11 10 0 6 2 10 4 10 3 0 8
-4 11 -10z m-463 -57 c-3 -16 -7 -22 -10 -15 -4 13 4 42 11 42 2 0 2 -12 -1
-27z m-125 -25 c-3 -8 -6 -5 -6 6 -1 11 2 17 5 13 3 -3 4 -12 1 -19z m1203
-37 c0 -5 8 -11 18 -14 16 -4 16 -4 -2 -12 -12 -5 -21 -3 -27 6 -12 19 -11 29
1 29 6 0 10 -4 10 -9z m-280 -45 c-1 -5 4 -12 11 -17 10 -6 10 -11 0 -22 -8
-10 -9 -17 -1 -22 5 -3 10 -19 10 -34 0 -15 5 -32 11 -38 9 -9 8 -18 -5 -37
-23 -36 -22 -60 3 -47 21 12 31 5 31 -21 0 -12 -4 -16 -12 -12 -8 5 -9 2 -5
-11 4 -9 2 -24 -4 -31 -6 -8 -8 -26 -5 -41 6 -26 5 -27 -8 -9 -11 14 -13 24
-5 38 6 11 8 31 4 45 l-6 25 -19 -23 c-23 -25 -23 -29 -10 -63 7 -18 6 -26 -1
-26 -8 0 -8 -4 -1 -12 5 -7 10 -30 10 -50 0 -33 -2 -36 -15 -23 -12 13 -40 20
-64 17 -4 -1 -5 7 -2 17 4 15 0 18 -21 14 -15 -3 -29 -9 -32 -14 -7 -12 -24
-11 -24 1 0 6 6 10 14 10 8 0 17 7 20 16 3 8 10 13 15 10 5 -3 14 1 21 9 8 9
8 15 2 15 -6 0 -12 -6 -14 -12 -3 -7 -10 2 -16 20 -6 17 -7 32 -3 32 4 0 13
11 19 25 8 18 8 25 1 25 -8 0 -8 4 0 14 8 10 9 16 1 21 -6 3 -8 11 -4 16 3 5
10 6 16 3 7 -5 9 -1 5 9 -4 11 -2 14 8 11 11 -5 12 1 2 31 -9 29 -8 38 3 45
10 6 7 10 -13 15 -15 4 -27 11 -27 16 0 5 7 6 15 3 21 -9 47 16 41 38 -3 13 3
22 17 28 25 10 39 8 37 -4z m-127 -93 c4 -3 -1 -12 -11 -20 -13 -11 -14 -15
-3 -20 11 -5 11 -7 0 -14 -9 -6 -10 -12 -4 -16 22 -17 16 -36 -10 -31 -27 6
-77 -26 -54 -34 9 -3 6 -11 -8 -25 -14 -14 -23 -18 -26 -10 -3 9 -8 9 -18 0
-9 -10 -10 -13 -1 -13 17 0 15 -17 -2 -23 -18 -7 -56 3 -56 14 0 5 7 9 15 9 8
0 15 7 15 15 0 8 7 15 15 15 8 0 15 4 15 9 0 6 -9 9 -19 8 -11 0 -18 -4 -15
-8 2 -4 -3 -12 -11 -19 -24 -20 -13 34 13 65 12 14 20 31 16 37 -5 7 -3 8 5 4
7 -5 20 -1 30 8 10 9 25 14 33 11 8 -3 24 5 36 20 22 25 34 30 45 18z m194
-68 c-7 -17 -27 -21 -27 -4 0 5 5 7 10 4 6 -3 10 2 10 11 0 10 3 15 6 11 4 -3
4 -13 1 -22z m33 5 c0 -5 -2 -10 -4 -10 -3 0 -8 5 -11 10 -3 6 -1 10 4 10 6 0
11 -4 11 -10z m-1290 -28 c0 -5 -7 -17 -15 -28 -14 -18 -14 -18 -15 9 0 17 5
27 15 27 8 0 15 -4 15 -8z m-10 -102 c-15 -57 -23 -122 -22 -175 1 -29 -4 -53
-11 -57 -9 -6 -9 -10 1 -17 10 -6 6 -15 -17 -38 l-30 -30 4 29 c2 16 11 42 20
56 l17 27 -26 -27 c-14 -15 -26 -35 -26 -45 0 -10 -5 -25 -11 -33 -8 -12 -10
-10 -6 10 9 50 59 236 72 265 7 17 16 43 20 59 4 18 10 25 15 20 6 -6 6 -23 0
-44z m875 40 c-3 -5 -10 -10 -16 -10 -5 0 -9 5 -9 10 0 6 7 10 16 10 8 0 12
-4 9 -10z m-42 -50 c-3 -12 -8 -19 -11 -16 -5 6 5 36 12 36 2 0 2 -9 -1 -20z
m-103 -34 c0 -18 -2 -17 -15 8 -19 36 -19 42 0 26 8 -7 15 -22 15 -34z m624 2
c-3 -4 -13 -8 -22 -7 -11 0 -13 2 -4 6 10 4 10 8 0 21 -12 14 -11 14 9 2 12
-8 19 -18 17 -22z m-567 -36 c-9 -2 -17 -7 -18 -10 0 -4 -2 -15 -4 -24 -2 -9
3 -22 11 -29 25 -21 15 -28 -17 -12 -17 9 -27 18 -22 22 4 3 14 19 21 35 10
23 10 31 0 44 -9 11 -4 10 16 -4 24 -15 26 -20 13 -22z m133 28 c0 -5 -2 -10
-4 -10 -3 0 -8 5 -11 10 -3 6 -1 10 4 10 6 0 11 -4 11 -10z m160 -10 c0 -5 -5
-10 -11 -10 -5 0 -7 5 -4 10 3 6 8 10 11 10 2 0 4 -4 4 -10z m209 -14 c9 -11
6 -12 -14 -8 -14 2 -22 8 -19 13 8 13 20 11 33 -5z m-258 -37 c4 -29 2 -39
-14 -48 -10 -7 -16 -18 -14 -26 4 -8 -2 -12 -19 -11 -28 1 -32 14 -6 23 21 9
46 32 39 39 -5 5 -53 16 -74 17 -7 0 -10 4 -7 9 4 5 12 7 20 4 8 -3 14 -1 14
5 0 6 9 8 20 4 22 -7 28 10 8 19 -7 3 -4 5 7 3 14 -2 21 -12 26 -38z m359 31
c11 -1 9 -4 -5 -10 -11 -5 -15 -9 -9 -9 7 -1 14 -8 17 -15 4 -10 1 -13 -9 -9
-7 3 -14 0 -14 -6 0 -6 -5 -11 -11 -11 -5 0 -7 5 -4 10 4 6 -8 10 -29 10 -19
0 -38 -4 -41 -10 -9 -14 -17 -12 -45 10 -14 11 -20 20 -15 19 6 -1 18 1 28 6
10 4 24 2 33 -6 14 -12 19 -11 30 7 9 12 23 20 37 18 12 -1 29 -3 37 -4z m-23
-102 c-3 -8 -6 -5 -6 6 -1 11 2 17 5 13 3 -3 4 -12 1 -19z m-572 -18 c8 -13
-25 -13 -45 0 -12 8 -9 10 12 10 15 0 30 -4 33 -10z m470 -40 c3 -5 -1 -10
-10 -10 -9 0 -13 5 -10 10 3 6 8 10 10 10 2 0 7 -4 10 -10z m-532 -13 c7 4 8
0 4 -11 -4 -10 -7 -20 -7 -22 0 -2 -4 -4 -8 -4 -4 0 -8 12 -9 28 -1 15 1 21 4
14 2 -6 10 -9 16 -5z m34 -37 c0 -18 -6 -30 -14 -30 -7 0 -13 -6 -13 -14 0 -8
-7 -16 -15 -20 -18 -7 -20 8 -2 26 15 15 31 49 29 61 -1 4 2 7 6 7 5 0 9 -13
9 -30z m-66 -37 c-9 -16 -10 -14 -11 12 0 21 3 26 11 18 8 -8 8 -16 0 -30z
m-731 8 c0 -5 -7 -14 -15 -21 -16 -14 -18 -10 -9 14 6 17 24 22 24 7z m-22
-68 c-18 -43 -29 -50 -18 -12 6 18 10 35 10 36 0 2 4 3 10 3 6 0 5 -11 -2 -27z
m773 -20 c11 -13 11 -17 1 -21 -10 -3 -10 -7 -1 -18 22 -27 -1 -27 -28 0 -19
19 -21 25 -8 20 15 -6 17 -4 13 14 -7 26 4 29 23 5z m-631 -39 c0 -8 -5 -25
-11 -36 -8 -15 -8 -22 0 -28 8 -5 7 -17 -4 -43 -8 -20 -15 -50 -15 -66 0 -17
-5 -43 -11 -58 -6 -15 -15 -37 -20 -48 -4 -11 -10 -27 -12 -35 -5 -12 -6 -12
-6 1 -1 9 6 36 14 59 8 23 12 46 9 51 -2 5 0 28 7 51 6 24 14 59 16 78 3 19 9
43 15 53 5 9 6 22 3 27 -3 6 -1 10 4 10 6 0 11 -7 11 -16z m1220 -64 c0 -5 -2
-10 -4 -10 -3 0 -8 5 -11 10 -3 6 -1 10 4 10 6 0 11 -4 11 -10z m-1415 -252
c-14 -31 -15 -31 -11 -5 4 31 -5 34 -28 11 -22 -22 -20 -2 4 41 11 20 22 50
24 68 10 74 21 71 24 -5 2 -53 -2 -86 -13 -110z m140 -50 c-9 -35 -21 -67 -27
-73 -12 -11 -8 13 19 105 22 74 29 47 8 -32z m217 -58 c-4 -28 -22 -53 -22
-31 0 12 18 61 23 61 2 0 2 -14 -1 -30z m-352 -8 c0 -11 -9 -44 -19 -75 -11
-31 -23 -100 -27 -154 -4 -54 -10 -89 -14 -79 -4 14 -14 2 -37 -50 -17 -38
-36 -86 -43 -106 -6 -21 -16 -40 -21 -43 -5 -4 -9 -20 -9 -38 0 -23 -3 -28
-11 -20 -9 9 -9 31 0 88 6 42 11 100 11 129 0 73 20 166 42 198 10 14 18 29
18 34 0 4 11 22 25 40 14 18 25 35 25 38 0 8 44 54 53 55 4 1 7 -7 7 -17z
m606 -157 c4 -8 9 -13 14 -10 13 8 44 -22 47 -46 2 -19 -5 -29 -32 -43 -19
-11 -35 -22 -35 -27 0 -4 -6 -9 -14 -12 -12 -5 -12 3 -2 47 11 45 10 55 -1 62
-9 5 -12 16 -8 27 9 21 24 22 31 2z m-521 -53 c3 -27 7 -136 7 -243 1 -107 3
-198 6 -203 6 -11 8 -47 16 -268 4 -123 2 -164 -9 -185 l-14 -26 -6 29 c-4 16
-11 41 -16 55 -8 20 -13 308 -9 489 1 19 -2 76 -6 125 -7 87 -7 107 -2 223 3
67 24 70 33 4z m525 -111 c0 -9 -20 -37 -20 -29 0 3 -2 13 -5 21 -4 8 0 14 10
14 8 0 15 -3 15 -6z m-663 -33 c-3 -8 -6 -5 -6 6 -1 11 2 17 5 13 3 -3 4 -12
1 -19z m453 -257 c5 -11 10 -30 10 -42 0 -17 -3 -19 -13 -10 -8 6 -17 8 -20 4
-11 -10 -8 16 3 38 7 13 7 19 0 19 -5 0 -10 -5 -10 -11 0 -5 -5 -7 -11 -3 -8
4 -7 9 2 15 21 13 27 11 39 -10z m310 -67 c0 -7 8 -17 17 -23 10 -5 15 -12 12
-15 -9 -10 -45 27 -54 54 -7 22 -6 23 9 11 9 -7 16 -19 16 -27z m60 -94 c6
-11 9 -20 7 -20 -2 0 -12 9 -22 20 -10 11 -13 20 -7 20 6 0 16 -9 22 -20z
m-500 6 c0 -3 -4 -8 -10 -11 -5 -3 -10 -1 -10 4 0 6 5 11 10 11 6 0 10 -2 10
-4z m178 -91 c-3 -3 -9 2 -12 12 -6 14 -5 15 5 6 7 -7 10 -15 7 -18z m37 -162
c3 -13 2 -23 -3 -23 -5 0 -12 14 -14 30 -5 33 6 28 17 -7z m39 -45 c4 -17 2
-28 -4 -28 -5 0 -10 11 -10 24 0 13 -3 33 -6 43 -4 14 -4 15 4 3 5 -8 12 -27
16 -42z m89 -103 c-3 -9 -8 -14 -10 -11 -3 3 -2 9 2 15 9 16 15 13 8 -4z m44
-50 c9 -24 -1 -27 -15 -5 -8 13 -8 20 -2 20 6 0 13 -7 17 -15z m13 -74 c0 -5
-6 -12 -12 -14 -10 -4 -10 -7 0 -15 13 -9 6 -42 -9 -42 -7 0 -7 24 0 73 1 10
21 9 21 -2z m37 -127 c2 -16 1 -16 -3 -1 -3 9 -9 15 -14 12 -5 -3 -11 -1 -14
4 -4 5 2 8 11 7 10 -2 19 -11 20 -22z m-7 -42 c0 -15 -2 -15 -10 -2 -13 20
-13 33 0 25 6 -3 10 -14 10 -23z m37 13 c-4 -8 -2 -17 3 -20 6 -4 10 -13 10
-21 0 -8 -5 -12 -10 -9 -6 4 -8 11 -5 16 4 5 1 9 -6 9 -8 0 -9 -12 -5 -37 5
-28 4 -34 -3 -23 -6 8 -11 23 -11 32 0 21 18 68 26 68 3 0 4 -7 1 -15z m42
-95 c6 -18 6 -30 0 -30 -5 0 -9 7 -9 15 0 8 -4 15 -10 15 -5 0 -10 7 -10 15 0
26 18 16 29 -15z m-832 -679 c4 -28 2 -41 -6 -41 -7 0 -10 4 -6 9 3 6 -1 13
-9 18 -13 7 -20 37 -17 73 2 30 32 -16 38 -59z m13 -81 c12 -22 4 -110 -10
-110 -8 0 -30 85 -30 115 0 22 28 18 40 -5z m437 13 c-4 -3 2 -12 13 -20 11
-8 20 -20 20 -26 0 -7 7 -25 15 -40 15 -29 6 -67 -14 -67 -7 0 -20 21 -21 33
0 1 -7 26 -15 55 -15 48 -14 72 2 72 4 0 3 -3 0 -7z m181 -383 c1 -23 0 -23
-8 -5 -5 11 -8 34 -8 50 0 29 0 29 8 5 4 -14 8 -36 8 -50z m72 -11 c0 -5 -4
-9 -10 -9 -5 0 -10 7 -10 16 0 8 5 12 10 9 6 -3 10 -10 10 -16z m-700 -251
c13 -15 20 -35 20 -64 0 -37 -2 -41 -24 -41 -19 -1 -26 6 -31 29 -7 28 1 98
10 98 2 0 13 -10 25 -22z"/>
<path d="M10810 3970 c0 -5 5 -10 11 -10 5 0 7 5 4 10 -3 6 -8 10 -11 10 -2 0
-4 -4 -4 -10z"/>
<path d="M6796 4935 c4 -8 8 -15 10 -15 2 0 4 7 4 15 0 8 -4 15 -10 15 -5 0
-7 -7 -4 -15z"/>
<path d="M6755 4920 c-3 -6 0 -17 8 -25 13 -12 15 -11 15 11 0 25 -12 32 -23
14z"/>
<path d="M6955 4890 c-3 -6 1 -7 9 -4 18 7 21 14 7 14 -6 0 -13 -4 -16 -10z"/>
<path d="M7070 4889 c0 -5 5 -7 10 -4 6 3 10 8 10 11 0 2 -4 4 -10 4 -5 0 -10
-5 -10 -11z"/>
<path d="M10288 4873 c6 -2 18 -2 25 0 6 3 1 5 -13 5 -14 0 -19 -2 -12 -5z"/>
<path d="M6740 4855 c-7 -9 -8 -15 -2 -15 5 0 12 7 16 15 3 8 4 15 2 15 -2 0
-9 -7 -16 -15z"/>
<path d="M10322 4854 c-10 -12 -10 -14 2 -14 17 0 30 16 19 23 -5 3 -14 -1
-21 -9z"/>
<path d="M10346 4809 c6 -10 74 -9 74 2 0 4 -18 7 -40 7 -22 0 -37 -4 -34 -9z"/>
<path d="M10667 4760 c-6 -22 0 -30 24 -30 10 0 20 -4 23 -9 4 -5 -4 -7 -16
-3 -21 5 -22 4 -8 -14 21 -26 31 -33 45 -28 21 8 4 52 -30 78 -31 24 -33 24
-38 6z"/>
<path d="M10906 4762 c-3 -5 1 -15 9 -22 21 -17 27 -9 10 13 -7 10 -16 14 -19
9z"/>
<path d="M7027 4712 c-19 -21 -22 -32 -7 -32 10 0 34 39 27 46 -2 2 -11 -4
-20 -14z"/>
<path d="M10007 4706 l-16 -24 34 11 c28 8 31 12 20 23 -18 18 -20 18 -38 -10z"/>
<path d="M10778 4701 c-22 -22 -23 -31 -3 -31 8 0 15 4 15 10 0 5 6 7 14 4 11
-4 13 0 9 15 -6 25 -12 25 -35 2z"/>
<path d="M6994 4671 c4 -6 1 -11 -7 -11 -16 0 -63 -47 -54 -56 9 -9 27 5 27
21 0 7 17 17 38 22 37 9 37 9 13 22 -14 8 -21 9 -17 2z"/>
<path d="M11113 4611 c-3 -9 -8 -19 -9 -22 -2 -4 6 -20 18 -35 15 -19 17 -24
5 -15 -10 8 -20 11 -24 7 -4 -3 2 -12 12 -20 13 -9 15 -15 6 -20 -9 -6 -9 -11
0 -22 9 -12 15 -12 27 -2 12 11 16 10 20 -1 2 -7 12 -20 22 -29 10 -8 16 -21
13 -29 -4 -10 0 -13 13 -11 11 2 18 -2 17 -8 -1 -7 7 -20 18 -30 20 -18 21
-18 34 -1 20 28 7 55 -36 74 -21 9 -39 20 -39 25 0 10 3 10 36 -2 24 -10 26
-9 13 6 -7 9 -22 20 -34 24 -17 7 -17 9 -2 9 21 1 22 17 1 25 -8 3 -12 11 -8
17 4 8 3 9 -4 5 -7 -4 -17 7 -26 27 -16 39 -63 57 -73 28z"/>
<path d="M7056 4585 c-11 -8 -15 -15 -9 -15 19 0 43 12 43 21 0 13 -12 11 -34
-6z"/>
<path d="M10770 4576 c0 -2 9 -6 20 -9 11 -3 20 -1 20 4 0 5 -9 9 -20 9 -11 0
-20 -2 -20 -4z"/>
<path d="M7056 4543 c-3 -10 -9 -24 -12 -31 -5 -11 -2 -12 13 -4 10 6 19 20
20 31 2 25 -12 28 -21 4z"/>
<path d="M15230 4518 c0 -6 -3 -9 -6 -5 -3 3 -28 -8 -56 -24 -38 -23 -49 -26
-44 -13 5 12 3 14 -6 7 -41 -30 -186 -123 -193 -123 -4 0 -15 -8 -24 -18 -9
-9 -28 -23 -43 -30 -16 -6 -28 -18 -28 -25 0 -8 -11 -25 -25 -39 l-24 -24 15
-155 c8 -85 20 -164 26 -176 6 -13 24 -28 40 -35 15 -7 28 -16 28 -20 0 -5 7
-8 15 -8 8 0 15 -4 15 -8 0 -5 13 -9 29 -9 16 0 36 -6 43 -14 8 -8 30 -25 48
-39 18 -14 42 -34 52 -44 13 -15 18 -16 18 -5 0 24 79 50 135 44 96 -9 230
-34 233 -43 1 -5 13 -7 27 -5 13 3 34 -2 46 -11 13 -8 32 -13 44 -10 16 4 30
-3 51 -26 16 -18 36 -39 45 -49 9 -9 19 -28 23 -43 3 -16 11 -28 16 -28 5 0
12 -17 16 -37 4 -21 13 -46 21 -55 11 -12 14 -38 12 -100 -3 -86 5 -123 22
-97 7 11 13 10 27 -7 9 -12 28 -25 40 -29 18 -5 22 -12 18 -28 -3 -12 -6 -27
-6 -34 0 -12 -37 -28 -56 -25 -7 1 -14 -4 -18 -13 -3 -8 -12 -15 -21 -15 -8 0
-15 -4 -15 -8 0 -5 -6 -9 -14 -9 -8 0 -30 -7 -50 -16 -20 -9 -51 -24 -69 -32
-17 -8 -51 -16 -75 -17 -23 -1 -42 -4 -42 -8 0 -4 -39 1 -87 11 -157 34 -281
49 -392 49 l-109 0 -116 56 c-64 31 -119 54 -123 51 -3 -3 6 -9 21 -13 14 -3
26 -10 26 -15 0 -14 -13 -11 -72 15 -64 28 -165 54 -228 58 -43 3 -45 2 -43
-22 28 -341 71 -728 83 -751 12 -21 11 -21 93 -23 37 -1 61 -6 66 -15 6 -9 11
-10 15 -2 10 16 26 13 26 -4 0 -24 -50 -113 -66 -119 -27 -10 -56 -7 -52 6 3
7 -1 19 -9 26 -7 7 -13 24 -13 37 0 76 -34 72 -58 -7 -21 -70 -20 -78 10 -78
19 0 20 -1 5 -17 -8 -10 -17 -29 -19 -42 -2 -19 -12 -27 -43 -36 l-40 -11 32
-8 c29 -7 67 -36 47 -36 -5 0 -4 -4 2 -8 14 -9 26 -82 13 -82 -5 0 -9 -12 -9
-27 0 -26 2 -25 30 19 17 27 30 51 30 54 0 3 6 11 13 19 6 7 30 36 52 64 26
33 42 46 47 39 4 -7 3 -17 -1 -23 -5 -5 -10 -22 -13 -36 -4 -25 -3 -25 37 -19
23 3 51 16 64 29 29 29 47 22 43 -15 -5 -37 -47 -82 -81 -86 -18 -2 -25 -8
-23 -21 2 -12 -6 -19 -29 -24 -18 -3 -34 -14 -36 -24 -3 -9 -16 -20 -30 -24
-15 -3 -30 -18 -38 -38 -7 -18 -22 -41 -32 -52 -10 -11 -24 -31 -31 -45 -7
-14 -23 -43 -37 -65 -42 -67 -64 -112 -80 -162 -9 -26 -20 -57 -25 -68 -6 -11
-16 -38 -24 -60 -20 -56 -20 -25 1 37 13 39 14 55 5 69 -17 27 -15 37 13 61
14 12 28 37 31 57 3 20 19 62 35 94 34 68 34 67 12 67 -11 0 -14 3 -7 8 17 11
23 37 13 53 -8 12 -12 10 -27 -7 -9 -12 -25 -24 -35 -27 -22 -8 -79 -126 -71
-149 4 -14 -1 -18 -24 -18 -33 0 -36 9 -48 138 -4 39 -12 66 -20 69 -9 3 -10
11 -3 30 15 41 11 58 -16 59 -29 2 -28 4 -14 -33 5 -15 7 -24 3 -20 -4 4 -13
2 -21 -4 -10 -9 -13 -7 -13 10 0 12 -4 19 -10 16 -12 -8 -13 -48 -1 -61 19
-20 19 -79 1 -102 -27 -33 -32 -27 -27 31 2 28 2 42 0 30 -3 -14 -12 -23 -22
-23 -15 0 -71 -67 -71 -85 0 -3 -16 -31 -35 -61 -52 -81 -123 -235 -137 -296
-7 -32 -25 -69 -45 -94 -50 -62 -83 -152 -83 -224 0 -46 -3 -60 -15 -60 -7 0
-18 -6 -22 -13 -4 -8 -16 -16 -25 -20 -12 -4 -18 -17 -18 -36 0 -16 -7 -42
-15 -57 -8 -16 -15 -36 -15 -45 0 -43 -36 -114 -79 -157 -25 -26 -52 -57 -58
-70 -16 -29 -17 -62 -3 -62 6 0 10 8 10 17 0 12 3 14 11 6 7 -7 8 -20 3 -34
-4 -13 -7 -32 -5 -42 3 -24 -56 -203 -80 -243 l-19 -31 31 -7 c17 -3 50 -6 72
-6 47 0 120 -42 136 -78 6 -12 11 -52 11 -87 l0 -65 553 0 553 0 57 55 c56 54
140 101 222 124 63 17 154 -5 95 -24 -23 -7 -26 -21 -7 -28 8 -3 5 -12 -10
-29 -30 -32 -29 -39 3 -36 15 2 29 -3 31 -10 3 -7 -1 -10 -11 -6 -9 3 -16 1
-16 -5 0 -6 7 -11 15 -11 8 0 15 -6 15 -12 0 -7 7 -3 15 9 18 25 45 20 45 -8
0 -19 30 -19 1264 -19 l1265 0 16 56 c12 40 13 60 6 67 -6 6 -11 20 -11 32 -1
12 -6 5 -15 -18 -14 -40 -24 -57 -26 -41 0 5 -3 22 -5 37 -4 22 3 35 31 62 19
19 38 35 41 35 4 0 4 -13 2 -30 -3 -21 -1 -27 7 -20 6 5 19 72 29 147 9 76 26
167 36 203 11 36 23 85 26 110 4 25 11 53 16 62 13 26 68 302 68 342 0 19 6
41 13 48 26 26 50 148 29 148 -4 0 -13 -5 -20 -12 -14 -14 -14 -12 -12 65 2
78 -19 86 -70 29 l-37 -40 -26 24 c-27 25 -47 31 -47 14 0 -5 5 -10 10 -10 6
0 10 -6 10 -12 0 -7 7 -25 14 -40 8 -16 14 -28 12 -28 -1 0 -40 14 -87 31 -75
28 -96 31 -194 32 -92 0 -117 -3 -150 -20 -46 -24 -146 -55 -153 -48 -3 2 4 7
14 11 60 20 125 55 119 63 -3 6 -49 10 -103 10 -56 0 -98 4 -100 10 -2 5 -10
7 -18 4 -8 -3 -14 -1 -14 4 0 6 18 18 40 28 62 28 68 42 21 50 -22 4 -45 4
-51 0 -5 -3 -10 2 -11 12 0 10 -26 38 -58 63 -32 24 -72 66 -89 92 l-32 48
-78 -52 c-42 -29 -78 -56 -80 -60 -2 -5 -8 -8 -13 -8 -16 0 -9 21 16 46 14 14
25 36 25 49 0 15 6 25 15 25 28 0 67 24 81 52 14 26 13 28 -6 28 -11 0 -19 3
-19 8 4 22 -3 32 -21 32 -11 0 -20 -5 -20 -11 0 -6 -8 -8 -18 -5 -12 4 -28 -4
-47 -24 -16 -16 -34 -30 -41 -30 -7 0 -20 -10 -28 -22 -11 -16 -16 -18 -16 -7
0 18 70 128 94 148 11 9 16 29 16 61 0 38 5 51 23 64 20 14 21 16 5 26 -10 6
-18 17 -18 24 0 8 -12 34 -26 60 -19 34 -24 54 -19 76 8 35 -4 38 -49 15 -15
-8 -37 -15 -47 -15 -11 0 -19 -4 -19 -9 0 -7 -88 4 -97 12 -1 2 1 17 5 33 5
16 7 56 6 88 -2 47 -8 64 -26 80 -29 26 -75 51 -97 51 -8 0 -17 9 -19 20 -7
36 -22 41 -22 7 0 -52 -21 -134 -46 -182 -97 -181 -122 -217 -220 -314 -166
-165 -267 -222 -462 -262 -129 -26 -186 -30 -229 -13 -39 14 -207 189 -194
202 12 12 31 0 31 -19 0 -12 9 -15 38 -13 20 2 43 7 50 12 8 7 12 5 12 -6 0
-17 34 -32 49 -23 5 4 12 -2 14 -11 4 -17 5 -17 6 0 0 10 7 17 14 16 6 -1 20
1 31 6 11 5 21 3 25 -4 9 -14 61 8 61 27 0 18 27 15 34 -5 4 -9 1 -20 -6 -25
-9 -6 -5 -8 12 -6 19 2 24 8 22 25 -2 17 1 20 18 16 14 -4 20 -1 20 11 0 9 3
16 8 17 43 4 68 11 95 26 25 15 31 25 29 46 -4 33 7 55 19 36 11 -18 15 -11
23 34 6 33 5 37 -14 37 -17 0 -18 2 -8 13 7 8 20 12 29 10 21 -6 104 72 94 87
-4 7 1 20 11 30 11 11 36 36 57 57 20 21 39 49 42 62 2 13 11 31 19 40 23 26
29 76 12 94 -9 9 -16 23 -16 31 0 9 -7 16 -15 16 -8 0 -15 7 -15 16 0 11 -6
15 -19 11 -25 -6 -33 15 -25 62 l6 36 -23 -22 c-21 -21 -22 -26 -12 -64 8 -29
8 -38 0 -30 -17 17 -37 13 -35 -6 4 -48 -2 -72 -17 -67 -17 7 -21 44 -5 44 6
0 10 5 10 10 0 6 -7 10 -15 10 -8 0 -15 9 -15 21 0 11 -4 17 -10 14 -5 -3 -10
-1 -10 4 0 6 -5 11 -11 11 -7 0 -5 -10 5 -26 10 -14 16 -37 13 -52 l-3 -27
-11 25 c-7 14 -12 20 -12 13 -2 -24 12 -43 30 -43 14 0 19 -7 19 -25 0 -27 -9
-32 -28 -13 -9 9 -12 7 -12 -9 0 -16 -6 -21 -27 -20 -16 1 -31 5 -34 10 -3 5
-12 -12 -19 -37 -10 -37 -15 -44 -26 -35 -11 9 -14 8 -14 -6 0 -9 -5 -15 -12
-13 -6 2 -21 -6 -34 -19 -13 -13 -32 -23 -44 -23 -11 0 -20 -4 -20 -8 0 -17
-50 -33 -71 -22 -17 10 -19 7 -19 -30 0 -34 -3 -41 -17 -38 -12 2 -17 11 -15
24 2 13 -3 21 -12 21 -9 0 -14 -10 -13 -26 2 -20 -2 -25 -17 -23 -11 2 -15 -1
-11 -7 3 -6 -1 -18 -9 -27 -15 -14 -16 -13 -16 10 0 22 -19 49 -21 29 -4 -41
-7 -52 -19 -64 -8 -9 -26 -13 -47 -11 -25 3 -33 0 -33 -12 0 -10 -8 -16 -21
-16 -15 0 -19 -5 -15 -15 6 -18 1 -19 -24 -5 -15 8 -19 4 -25 -28 -7 -36 -34
-72 -55 -72 -5 0 -10 -4 -10 -10 0 -5 -9 -10 -19 -10 -11 0 -21 -5 -23 -11 -3
-9 -10 -9 -26 0 -14 8 -22 8 -22 1 0 -13 -47 -13 -55 0 -4 6 -10 8 -15 5 -11
-7 -71 22 -82 39 -12 17 -10 -18 2 -50 7 -19 7 -30 -1 -40 -6 -8 -9 -20 -6
-29 4 -8 0 -21 -8 -29 -19 -19 -19 -45 0 -52 8 -4 15 -10 15 -15 0 -4 -6 -6
-14 -3 -15 6 -36 -23 -36 -50 0 -8 -5 -27 -12 -43 -6 -15 -10 -32 -9 -36 1 -5
-4 -27 -10 -50 -6 -23 -12 -55 -14 -72 -1 -16 -8 -55 -15 -85 -7 -30 -12 -64
-12 -74 1 -11 -8 -64 -18 -118 -11 -55 -20 -110 -20 -123 0 -13 -4 -27 -10
-30 -12 -7 -12 2 -1 85 5 36 12 94 16 130 3 36 12 92 19 124 8 33 12 65 9 72
-3 7 -2 18 2 24 7 11 15 76 18 150 2 27 -2 35 -14 34 -11 -1 -15 5 -12 17 3
10 11 15 19 12 20 -7 30 26 15 50 -11 17 -10 22 3 29 25 14 9 39 -19 28 -13
-5 -26 -6 -29 -2 -4 3 -9 -4 -13 -16 -5 -19 -23 -32 -23 -17 0 16 32 65 53 82
13 10 30 33 38 51 7 17 18 31 24 29 13 -5 34 24 28 39 -3 7 -10 11 -17 8 -15
-6 -51 61 -41 75 3 5 0 13 -6 16 -5 4 -9 21 -8 39 6 84 -29 217 -76 291 -19
30 -35 58 -35 63 0 4 -8 17 -17 28 -45 50 -103 148 -98 163 3 10 -3 33 -12 52
-22 44 -31 158 -12 169 10 7 10 11 0 24 -11 13 -10 18 3 32 20 19 14 64 -15
121 -11 21 -19 53 -19 71 0 34 0 34 25 18 32 -21 35 -20 35 10 0 14 -4 23 -9
20 -4 -3 -18 6 -31 19 -26 27 -41 25 -33 -5 3 -11 1 -20 -5 -20 -16 0 -22 28
-12 54 7 19 14 23 37 19 15 -2 37 -8 48 -13 11 -4 28 -11 37 -14 10 -3 15 -11
12 -19 -8 -21 18 -36 72 -43 95 -11 130 -62 38 -56 -26 2 -45 0 -41 -4 4 -4 2
-13 -4 -20 -8 -9 -1 -17 25 -29 20 -10 36 -23 36 -31 0 -7 16 -16 35 -20 40
-7 45 -30 21 -89 -21 -50 -56 -69 -112 -60 -59 8 -81 13 -107 21 l-22 6 22
-17 c56 -40 181 -62 198 -34 4 6 14 8 22 5 8 -3 11 -1 8 4 -3 5 10 31 29 56
20 26 36 52 36 58 1 15 36 56 48 56 5 0 15 -15 22 -32 51 -136 76 -173 171
-253 22 -18 25 -22 8 -12 -16 9 -31 12 -39 7 -11 -7 -9 -14 13 -34 32 -30 34
-45 8 -74 -13 -16 -30 -22 -57 -22 -22 0 -49 -7 -60 -15 -12 -8 -24 -11 -28
-8 -3 3 -6 1 -6 -5 0 -7 -13 -12 -30 -12 -16 0 -30 -4 -30 -9 0 -5 -9 -12 -19
-16 -11 -3 -18 -12 -15 -19 11 -28 95 -49 108 -27 5 8 116 4 125 -5 2 -2 12 6
22 17 16 19 20 19 33 6 8 -8 12 -17 9 -21 -4 -3 -1 -6 6 -6 9 0 31 38 31 54 0
5 -45 -1 -69 -9 -15 -5 -21 -2 -21 9 0 9 -4 16 -10 16 -24 0 -7 41 31 74 34
28 41 40 37 61 -4 20 -2 24 11 21 71 -22 122 -28 187 -24 106 7 120 24 149
171 4 18 12 27 25 27 11 0 20 5 20 10 0 6 19 10 42 10 39 0 40 1 22 15 -10 8
-35 15 -54 16 -21 1 -2 6 47 13 45 7 90 19 100 28 10 8 25 18 33 21 11 4 9 6
-5 6 -11 1 12 12 50 26 74 25 151 25 141 -1 -8 -21 21 -24 43 -3 21 20 23 20
33 -20 2 -7 18 15 35 51 34 70 100 134 212 206 81 52 107 63 126 56 8 -4 15
-1 15 5 0 8 11 10 33 6 30 -6 34 -4 50 30 21 44 22 69 2 85 -8 7 -27 34 -42
61 -14 27 -30 46 -35 43 -4 -3 -11 3 -15 13 -4 10 -10 20 -14 23 -7 5 -17 58
-18 103 -1 16 -6 17 -33 12 l-33 -7 41 31 c64 48 114 133 84 143 -7 2 -5 16 5
40 8 21 15 47 15 58 0 12 11 38 25 58 36 53 33 75 -11 72 -3 -1 -14 9 -24 22
l-20 23 6 -35 6 -35 -16 29 c-20 35 -46 55 -63 49 -14 -5 -16 4 -13 50 1 20
-3 27 -16 27 -16 0 -16 1 1 14 18 13 18 15 2 30 -9 10 -20 28 -23 42 -3 13
-13 24 -21 24 -7 0 -20 15 -28 33 -8 17 -15 28 -15 22 -1 -5 -7 8 -15 30 -8
22 -13 45 -10 52 2 7 0 15 -5 18 -6 4 -10 -1 -10 -9 0 -20 1 -21 -61 10 -44
22 -54 24 -63 13 -23 -30 -266 -1 -266 32 0 5 -4 9 -10 9 -5 0 -10 -7 -10 -16
0 -8 -5 -12 -10 -9 -6 4 -26 8 -45 9 -31 3 -33 1 -24 -16 6 -11 17 -22 25 -25
16 -6 18 -31 5 -52 -7 -11 -12 -11 -31 2 -13 9 -31 29 -42 44 -18 28 -18 28
-24 6 -7 -25 -24 -31 -24 -9 0 7 -9 16 -19 19 -14 3 -21 -2 -25 -17 -6 -20 -7
-20 -20 -3 -15 19 -66 33 -66 18 0 -5 -8 -11 -17 -15 -10 -3 -24 -9 -30 -12
-8 -3 -13 1 -13 10 0 14 -5 14 -40 -4 -57 -29 -61 -24 -11 19 30 27 42 44 38
55 -5 14 -11 15 -27 6 -21 -11 -29 3 -9 16 8 5 6 10 -5 16 -19 11 -36 3 -36
-17 0 -7 -14 -16 -31 -20 -17 -4 -46 -20 -65 -37 -18 -16 -47 -32 -64 -35 -29
-4 -30 -3 -19 16 7 11 21 22 31 24 10 3 18 12 18 21 0 9 8 16 20 16 20 0 25
15 14 44 -7 19 -24 21 -24 4z m260 -132 c0 -3 -4 -8 -10 -11 -5 -3 -10 -1 -10
4 0 6 5 11 10 11 6 0 10 -2 10 -4z m-360 -30 c0 -3 -4 -8 -10 -11 -5 -3 -10
-1 -10 4 0 6 5 11 10 11 6 0 10 -2 10 -4z m800 -1110 c0 -3 -4 -8 -10 -11 -5
-3 -10 -1 -10 4 0 6 5 11 10 11 6 0 10 -2 10 -4z m-1495 -66 c3 -5 2 -10 -4
-10 -5 0 -13 5 -16 10 -3 6 -2 10 4 10 5 0 13 -4 16 -10z m1295 -130 c-8 -5
-22 -9 -30 -9 -10 0 -8 3 5 9 27 12 43 12 25 0z m-612 -44 c-47 -14 -55 -23
-29 -31 16 -5 21 -15 21 -38 0 -29 27 -67 47 -67 3 0 14 -7 24 -16 17 -15 19
-15 34 0 9 9 22 16 28 16 16 -1 48 -26 41 -32 -2 -3 5 -8 16 -11 16 -4 20 -2
16 9 -3 8 -1 14 3 14 5 0 11 -4 13 -9 2 -6 22 -6 51 1 81 17 134 -13 70 -40
-28 -11 -27 -11 6 -5 l34 5 -7 -58 c-10 -87 -26 -99 -130 -97 -93 2 -136 16
-195 63 -38 31 -91 127 -91 165 0 9 -7 33 -16 51 -23 48 -8 81 38 87 57 7 64
5 26 -7z m255 -27 c37 -10 47 -23 25 -32 -10 -4 -9 -8 2 -16 11 -8 16 -7 18 4
6 25 19 17 41 -25 25 -48 27 -47 -96 -26 -91 16 -109 24 -138 57 l-20 22 25
-5 c14 -3 40 -9 58 -13 30 -7 32 -6 32 19 0 29 1 30 53 15z m152 -59 c4 -6 -5
-10 -20 -10 -15 0 -24 4 -20 10 3 6 12 10 20 10 8 0 17 -4 20 -10z m-435 -470
c0 -5 -4 -10 -10 -10 -5 0 -10 5 -10 10 0 6 5 10 10 10 6 0 10 -4 10 -10z
m903 -40 c-3 -11 -9 -20 -14 -20 -10 0 -12 33 -3 43 12 12 22 -3 17 -23z m43
-47 c-11 -11 -17 4 -9 23 7 18 8 18 11 1 2 -10 1 -21 -2 -24z m-246 -443 c0
-5 -5 -10 -11 -10 -5 0 -7 5 -4 10 3 6 8 10 11 10 2 0 4 -4 4 -10z m-1710
-105 c0 -15 -18 -30 -27 -22 -2 3 -2 15 2 26 7 23 25 19 25 -4z m1054 -11 c17
-6 23 -59 8 -68 -20 -12 -46 32 -36 59 7 17 7 17 28 9z m-944 -24 c0 -5 -2
-10 -4 -10 -3 0 -8 5 -11 10 -3 6 -1 10 4 10 6 0 11 -4 11 -10z m84 -88 c2 -4
1 -14 -4 -22 -7 -11 -12 -12 -21 -3 -6 6 -8 16 -5 22 8 13 23 14 30 3z m3545
-590 c-8 -35 -16 -49 -26 -45 -18 7 -17 28 2 43 9 7 14 19 11 25 -4 13 14 38
22 30 2 -2 -2 -26 -9 -53z m-353 27 c3 -5 16 -6 30 -3 13 3 24 2 24 -2 0 -13
-61 -15 -76 -4 -13 12 -44 3 -44 -12 0 -5 -12 -7 -28 -5 -15 3 -49 1 -75 -3
-26 -4 -47 -4 -47 0 0 9 39 28 65 32 46 7 146 5 151 -3z m249 -145 c28 -9 57
-23 65 -32 13 -13 13 -14 -5 -8 -104 37 -331 56 -444 37 -85 -14 -89 -7 -9 13
84 21 320 15 393 -10z m-2976 -88 c-9 -8 -10 -5 -5 14 3 14 6 32 7 40 1 8 4 2
6 -14 3 -16 -1 -34 -8 -40z m3086 -5 c-4 -25 -11 -39 -17 -35 -6 4 -17 -1 -24
-11 -20 -26 -26 -14 -16 31 7 32 12 39 30 37 15 -2 22 3 22 14 0 9 3 14 6 10
3 -3 3 -24 -1 -46z m-287 -57 c67 -15 183 -66 203 -90 12 -15 -1 -20 -16 -5
-13 11 -154 60 -225 77 -30 7 -86 14 -125 14 -38 0 -81 4 -95 8 -22 6 -19 8
20 13 58 8 158 1 238 -17z m-265 -75 c-8 -8 -16 -8 -30 0 -16 9 -14 10 12 11
21 0 26 -3 18 -11z m194 -10 c29 -6 96 -32 149 -60 54 -27 103 -49 109 -49 7
0 15 10 18 21 4 16 11 20 27 16 17 -4 19 -3 9 9 -6 8 -9 14 -6 14 3 0 13 3 22
6 13 5 15 2 11 -20 -4 -14 -8 -37 -11 -51 -6 -28 -25 -34 -25 -7 -1 19 -41
-84 -42 -108 -1 -8 -5 -18 -10 -21 -11 -7 8 -59 21 -59 5 0 11 7 15 15 11 30
25 14 20 -22 -9 -59 -16 -72 -23 -43 -6 22 -8 20 -20 -22 -15 -53 -27 -61 -37
-23 -4 16 -14 25 -28 26 -20 2 -20 2 2 6 12 2 22 11 22 19 0 8 -4 12 -10 9 -6
-3 -7 1 -3 10 5 14 0 16 -28 13 -19 -2 -37 -7 -40 -12 -4 -4 -26 3 -50 17 -24
13 -50 23 -56 20 -7 -3 -13 -1 -13 5 0 5 -7 9 -15 10 -8 1 -21 3 -27 4 -7 0
-23 -2 -36 -6 -15 -5 -22 -4 -20 4 2 7 -11 14 -32 15 -19 2 -55 11 -80 19
l-45 15 60 -5 c33 -3 70 -7 81 -9 14 -3 24 1 28 12 4 9 5 17 4 18 -16 11 -93
34 -133 39 -78 11 -99 17 -84 27 7 4 21 3 30 -2 11 -5 33 -5 56 0 21 5 29 9
19 10 -20 1 -20 1 0 16 18 14 17 14 -16 16 -19 1 -38 1 -42 0 -5 0 -8 3 -8 9
0 6 7 10 15 10 30 0 14 20 -17 22 -18 0 11 4 64 8 54 3 101 10 105 14 12 12
-27 36 -69 43 -21 3 -38 10 -38 15 0 10 91 3 177 -13z m370 -71 c-3 -8 -6 -5
-6 6 -1 11 2 17 5 13 3 -3 4 -12 1 -19z m-694 -75 c-18 -2 -48 -2 -65 0 -18 2
-4 4 32 4 36 0 50 -2 33 -4z m-57 -118 c-4 -11 2 -15 20 -15 14 0 23 4 20 9
-8 12 47 22 59 10 5 -5 0 -9 -14 -9 -12 0 -20 -4 -17 -9 3 -5 15 -7 26 -4 22
6 28 -12 8 -20 -7 -3 1 -6 19 -6 17 -1 33 -6 35 -12 2 -7 18 -12 35 -13 21 -1
33 -7 36 -18 4 -14 0 -16 -27 -11 -36 7 -34 3 21 -34 22 -15 60 -43 83 -62 64
-53 227 -271 202 -271 -9 0 -82 101 -82 114 0 26 -150 168 -217 208 -159 91
-357 131 -459 91 -8 -3 -14 -1 -14 5 0 19 111 48 220 55 25 2 47 4 49 5 2 1 1
-5 -3 -13z m197 -8 c3 -8 -5 -12 -22 -11 -14 1 -34 3 -43 3 -10 1 -18 5 -18
10 0 13 78 11 83 -2z m37 -21 c0 -3 -4 -8 -10 -11 -5 -3 -10 -1 -10 4 0 6 5
11 10 11 6 0 10 -2 10 -4z m220 -47 c0 -12 -57 3 -80 22 -25 18 -24 18 27 1
29 -9 53 -20 53 -23z m-511 -48 c19 -22 19 -51 -1 -51 -5 0 -6 5 -3 10 3 6 -1
10 -9 10 -9 0 -16 5 -16 10 0 13 -47 13 -55 0 -3 -5 6 -12 20 -16 20 -5 24
-11 19 -26 -4 -14 -3 -18 5 -13 7 4 18 1 26 -5 17 -14 20 -45 4 -34 -6 3 -15
0 -20 -7 -5 -8 -9 -9 -9 -3 0 7 -12 15 -27 19 -15 3 -39 15 -54 25 -14 11 -30
16 -34 12 -5 -4 -5 -2 -2 5 4 7 -5 17 -23 25 -16 7 -30 16 -30 20 0 4 -12 9
-27 11 -16 2 -3 3 28 3 32 -1 54 -5 51 -10 -3 -5 2 -6 12 -3 10 4 24 7 32 7
26 0 15 17 -18 28 -29 10 -25 11 39 9 61 -2 75 -6 92 -26z m341 25 c0 -3 -4
-8 -10 -11 -5 -3 -10 -1 -10 4 0 6 5 11 10 11 6 0 10 -2 10 -4z m-305 -166 c3
-5 -1 -10 -10 -10 -9 0 -13 5 -10 10 3 6 8 10 10 10 2 0 7 -4 10 -10z"/>
<path d="M17540 686 c0 -3 25 -19 56 -36 30 -18 67 -43 81 -56 26 -24 49 -20
38 7 -6 17 -100 71 -108 63 -3 -4 -13 1 -22 10 -15 14 -45 22 -45 12z"/>
<path d="M17453 493 c9 -2 23 -2 30 0 6 3 -1 5 -18 5 -16 0 -22 -2 -12 -5z"/>
<path d="M17510 480 c0 -5 7 -10 16 -10 8 0 12 5 9 10 -3 6 -10 10 -16 10 -5
0 -9 -4 -9 -10z"/>
<path d="M17568 468 c9 -9 15 -9 24 0 9 9 7 12 -12 12 -19 0 -21 -3 -12 -12z"/>
<path d="M17675 450 c3 -5 8 -10 11 -10 2 0 4 5 4 10 0 6 -5 10 -11 10 -5 0
-7 -4 -4 -10z"/>
<path d="M7420 4432 c-14 -2 -56 -15 -95 -30 -38 -15 -77 -27 -86 -28 -9 -1
-21 -4 -27 -8 -6 -4 -40 -9 -76 -12 -53 -4 -66 -2 -74 12 -8 14 -13 14 -33 3
-65 -34 -78 -37 -60 -15 9 11 9 15 -1 20 -7 3 2 3 20 0 21 -4 32 -2 32 6 0 7
-7 10 -15 6 -8 -3 -15 -2 -15 2 0 4 -9 13 -20 20 -17 10 -20 10 -18 -5 3 -41
-3 -63 -17 -63 -8 0 -15 9 -15 19 0 20 -17 37 -27 27 -3 -3 -7 -29 -10 -58 -2
-29 -4 -58 -5 -64 -1 -5 -15 -8 -31 -6 -22 4 -28 1 -25 -9 3 -8 21 -15 42 -17
21 -2 40 -10 43 -18 7 -18 49 -18 138 2 68 15 93 18 223 28 38 3 71 11 81 20
10 9 21 16 25 16 12 0 90 54 108 75 22 26 22 37 0 56 -26 23 -34 25 -62 21z"/>
<path d="M11340 4406 c0 -8 6 -17 13 -19 10 -4 10 -6 0 -6 -18 -1 -16 -21 2
-21 8 0 15 -4 15 -10 0 -5 -4 -10 -10 -10 -5 0 -10 -5 -10 -12 0 -6 3 -9 6 -5
9 9 36 -21 29 -33 -10 -16 14 -50 30 -44 20 8 19 24 -1 24 -11 0 -14 5 -10 16
3 9 3 21 -1 27 -5 7 -8 19 -9 27 -1 8 -2 22 -3 31 -2 22 -51 56 -51 35z"/>
<path d="M6827 4394 c-13 -14 24 -69 43 -62 5 2 2 18 -7 36 -15 31 -24 38 -36
26z"/>
<path d="M18450 4356 c0 -25 12 -46 26 -46 12 0 12 5 -1 30 -17 33 -25 38 -25
16z"/>
<path d="M18102 4295 c-12 -25 -4 -39 15 -27 6 4 13 17 17 30 10 31 -17 29
-32 -3z"/>
<path d="M11126 4172 c-3 -6 -1 -14 5 -17 15 -10 25 3 12 16 -7 7 -13 7 -17 1z"/>
<path d="M16485 4110 c-8 -13 15 -13 35 0 12 8 11 10 -7 10 -12 0 -25 -4 -28
-10z"/>
<path d="M11187 4064 c-4 -4 -7 -12 -7 -18 0 -6 5 -4 11 4 9 12 10 11 6 -6 -2
-12 1 -21 8 -21 6 0 11 9 10 21 -2 21 -16 31 -28 20z"/>
<path d="M16526 4024 c-10 -25 1 -29 14 -5 6 12 7 21 1 21 -5 0 -12 -7 -15
-16z"/>
<path d="M22490 3998 c-1 -13 -5 -86 -10 -163 -5 -77 -14 -228 -20 -335 -5
-107 -14 -233 -20 -280 -6 -47 -15 -173 -20 -280 -10 -186 -17 -284 -40 -555
-27 -313 -29 -409 -16 -540 18 -186 14 -289 -13 -344 -29 -56 -38 -115 -51
-351 -6 -107 -13 -217 -15 -245 -8 -88 -14 -204 -24 -470 -6 -143 -13 -299
-17 -348 l-6 -87 131 0 131 0 0 2010 c0 1106 -2 2010 -5 2010 -3 0 -5 -10 -5
-22z"/>
<path d="M11148 3984 c19 -36 38 -46 76 -39 31 6 34 9 23 26 -14 23 -33 25
-41 3 -8 -21 -27 -8 -20 14 5 14 4 14 -4 3 -9 -13 -13 -13 -28 0 -16 13 -16
12 -6 -7z"/>
<path d="M11248 3933 c6 -2 18 -2 25 0 6 3 1 5 -13 5 -14 0 -19 -2 -12 -5z"/>
<path d="M11277 3923 c-15 -8 -25 -19 -21 -25 10 -16 65 -36 84 -31 17 5 17 6
2 22 -10 10 -21 25 -27 33 -9 13 -14 13 -38 1z"/>
<path d="M11207 3923 c-10 -9 -9 -23 2 -23 5 0 11 7 15 15 5 15 -5 20 -17 8z"/>
<path d="M17198 3813 c-7 -16 -18 -36 -26 -45 -14 -17 -12 -18 25 -18 42 0 66
23 36 34 -10 4 -13 14 -9 31 9 34 -11 32 -26 -2z"/>
<path d="M6635 3765 c-5 -2 -23 -6 -39 -10 -27 -6 -28 -7 -12 -23 15 -15 19
-15 43 -2 38 22 44 47 8 35z"/>
<path d="M7575 3710 c-11 -5 -16 -9 -10 -9 5 -1 -7 -12 -27 -26 -60 -41 -73
-86 -42 -146 14 -29 18 -30 61 -24 25 3 58 13 72 21 l26 14 -38 -4 c-20 -2
-40 0 -43 5 -3 5 4 9 16 9 24 0 48 21 67 58 18 33 10 40 -40 37 -40 -3 -44 -1
-42 18 4 36 4 37 19 37 8 0 18 5 21 10 7 12 -12 12 -40 0z"/>
<path d="M7618 3682 c-40 -5 -34 -22 7 -22 19 0 35 4 35 9 0 14 -11 17 -42 13z"/>
<path d="M7043 3658 c-39 -10 -53 -28 -22 -28 18 0 20 -3 11 -12 -21 -21 -13
-28 30 -28 41 0 42 0 20 -16 -25 -17 -29 -34 -7 -34 34 0 13 -28 -29 -39 -24
-6 -51 -13 -60 -17 -11 -4 -16 0 -16 14 0 12 -5 24 -12 28 -7 4 -8 3 -4 -4 5
-8 -1 -12 -15 -12 -12 0 -37 -11 -55 -25 -18 -14 -39 -25 -48 -25 -8 0 -17 -4
-20 -9 -3 -4 13 -7 36 -5 23 2 59 -1 81 -7 25 -7 43 -7 50 0 14 11 69 3 62 -9
-3 -4 2 -11 11 -14 10 -4 13 -2 8 6 -5 8 -2 9 10 5 10 -4 25 -7 34 -7 41 0
-44 -29 -96 -33 -31 -2 -21 -3 23 -2 49 2 91 9 110 19 17 9 35 16 41 16 6 0
21 11 34 25 13 14 28 25 34 25 18 1 42 42 50 83 6 29 4 39 -9 43 -11 5 -15 14
-11 29 7 28 -1 30 -114 34 -47 2 -87 4 -90 5 -3 2 -19 -1 -37 -6z m207 -145
c-1 -11 -50 -46 -57 -40 -7 7 29 45 45 46 6 1 12 -2 12 -6z"/>
<path d="M14495 3620 c-7 -12 25 -49 39 -45 6 2 23 6 39 9 33 8 36 31 5 40
-35 9 -76 7 -83 -4z"/>
<path d="M11050 3600 c0 -5 5 -10 11 -10 5 0 7 5 4 10 -3 6 -8 10 -11 10 -2 0
-4 -4 -4 -10z"/>
<path d="M9382 3553 c-5 -16 -25 -64 -43 -108 -22 -56 -33 -101 -36 -150 -3
-38 -9 -74 -14 -80 -5 -5 -8 -20 -8 -35 1 -20 2 -21 6 -5 3 11 9 25 13 30 4 6
17 48 29 95 12 47 31 112 41 145 10 33 18 67 18 75 -1 8 2 25 6 38 10 32 0 27
-12 -5z"/>
<path d="M7030 3561 c0 -6 4 -13 10 -16 6 -3 7 1 4 9 -7 18 -14 21 -14 7z"/>
<path d="M200 3529 c-47 -15 -111 -35 -142 -44 l-58 -16 0 -474 0 -473 30 -4
c40 -6 44 -2 68 67 11 33 34 98 51 145 17 47 31 102 31 123 0 46 17 207 30
294 8 49 91 313 125 396 10 25 -31 21 -135 -14z"/>
<path d="M16525 3520 c1 -19 7 -36 14 -38 15 -5 13 17 -3 48 -14 24 -14 24
-11 -10z"/>
<path d="M6408 3483 c-59 -9 -17 -93 45 -93 16 0 46 9 66 19 20 11 48 22 64
25 17 4 27 13 27 25 0 15 -10 19 -52 25 -55 6 -104 6 -150 -1z"/>
<path d="M3182 3398 c-16 -16 -15 -23 4 -42 21 -22 37 -20 52 5 23 36 -25 68
-56 37z"/>
<path d="M14585 3365 c-74 -44 -142 -101 -133 -110 4 -4 27 -10 51 -12 58 -7
124 25 133 65 3 15 10 42 14 60 5 17 5 32 1 32 -3 0 -33 -16 -66 -35z"/>
<path d="M13250 3381 c0 -5 -21 -21 -46 -35 -62 -35 -123 -35 -169 -1 -21 16
-43 25 -59 23 -37 -6 -42 -16 -13 -27 14 -6 34 -23 44 -38 10 -15 22 -31 27
-35 20 -14 140 3 170 24 19 14 37 18 57 14 20 -4 29 -2 29 8 0 7 11 23 25 36
35 33 32 40 -20 40 -25 0 -45 -4 -45 -9z"/>
<path d="M11645 3340 c-3 -5 -2 -10 4 -10 5 0 13 5 16 10 3 6 2 10 -4 10 -5 0
-13 -4 -16 -10z"/>
<path d="M1272 3315 c0 -16 2 -22 5 -12 2 9 2 23 0 30 -3 6 -5 -1 -5 -18z"/>
<path d="M11652 3270 c-2 -40 11 -54 22 -24 7 18 -3 64 -13 64 -4 0 -8 -18 -9
-40z"/>
<path d="M13222 3261 c2 -7 7 -12 11 -12 12 1 9 15 -3 20 -7 2 -11 -2 -8 -8z"/>
<path d="M7220 3225 c-26 -27 -31 -38 -22 -47 16 -16 15 -28 -3 -28 -8 0 -15
-5 -15 -11 0 -5 -4 -8 -10 -4 -5 3 -6 13 -3 21 5 13 1 15 -18 9 -13 -4 -27
-14 -32 -21 -4 -7 -23 -30 -42 -50 -19 -20 -32 -41 -28 -47 3 -5 1 -7 -5 -3
-6 3 -17 -2 -24 -12 -7 -10 -20 -21 -29 -24 -9 -4 -22 -28 -28 -55 -22 -82
-21 -80 -35 -60 -26 35 -30 17 -9 -40 3 -7 -2 -13 -10 -13 -8 0 -18 -6 -20
-12 -3 -7 -10 2 -17 20 -7 17 -16 33 -21 33 -20 3 -24 5 -37 13 -17 10 -35 -6
-39 -36 -2 -13 -8 -24 -13 -26 -6 -2 -10 -20 -10 -41 0 -25 -11 -53 -33 -87
-19 -28 -36 -69 -39 -91 -5 -37 -4 -40 18 -35 13 2 29 11 36 20 11 13 10 15
-4 9 -13 -5 -18 -1 -18 13 0 24 4 25 25 4 8 -9 13 -24 10 -34 -3 -11 0 -20 10
-24 8 -3 15 -1 15 4 0 14 12 12 34 -5 17 -13 17 -15 2 -30 -9 -9 -16 -12 -16
-6 0 6 -7 11 -16 11 -8 0 -22 7 -30 15 -12 11 -20 12 -39 3 -33 -15 -32 -28 1
-28 22 0 24 -3 15 -14 -7 -8 -20 -12 -30 -9 -10 3 -22 0 -25 -6 -5 -7 3 -11
18 -11 16 0 26 -6 26 -15 0 -17 -29 -34 -47 -28 -7 3 -16 -3 -19 -12 -5 -12
-9 -13 -14 -4 -6 8 -11 5 -19 -10 -7 -12 -16 -19 -20 -16 -5 2 -14 -1 -20 -9
-15 -18 23 -42 129 -84 169 -67 300 -87 393 -61 27 7 41 19 52 42 34 71 81
132 103 134 14 2 22 -3 22 -12 0 -17 26 -20 36 -4 4 8 9 7 15 -2 6 -11 19 -10
66 6 32 11 64 27 71 37 7 10 22 18 33 18 22 0 49 22 49 39 0 6 7 11 15 11 8 0
17 11 21 25 3 14 10 25 15 25 5 0 9 16 9 35 0 19 -4 35 -10 35 -5 0 -10 7 -10
15 0 17 -9 19 -28 6 -11 -7 -11 -11 2 -24 9 -8 16 -20 16 -26 0 -17 -20 -13
-27 6 -6 15 -7 15 -13 -1 -4 -14 -12 -6 -34 34 -15 28 -25 54 -21 58 3 3 10 0
15 -8 12 -20 24 -5 15 17 -7 16 -11 43 -14 105 -1 12 -6 15 -18 11 -11 -3 -5
7 15 27 17 18 32 43 32 55 0 19 37 79 40 65 1 -3 3 -18 5 -35 7 -60 25 -129
37 -137 24 -14 30 10 14 58 -20 59 -20 70 -1 54 13 -11 15 -6 15 33 0 25 5 49
10 52 6 4 8 11 4 16 -3 5 -2 15 3 22 18 23 33 95 27 125 -7 34 -44 58 -63 39
-8 -8 -7 -15 5 -28 9 -10 16 -37 16 -65 1 -51 -21 -79 -74 -90 -16 -4 -28 -11
-28 -15 0 -17 -83 -100 -95 -95 -7 2 -17 0 -22 -5 -15 -15 -102 -22 -118 -9
-9 7 -15 8 -20 0 -11 -18 -45 -11 -54 13 -5 12 -7 25 -4 30 7 11 51 8 59 -5 5
-7 10 -4 15 10 5 13 17 22 29 22 12 0 18 5 15 10 -3 6 1 10 10 10 9 0 13 -5 9
-11 -4 -8 1 -9 17 -3 13 4 36 8 51 9 15 1 34 8 43 15 8 7 15 9 15 6 0 -4 13 2
29 13 29 21 46 72 28 90 -5 5 -24 5 -45 0 -47 -11 -63 -10 -34 1 59 24 2 46
-94 36 -75 -8 -104 3 -104 40 0 17 8 27 25 34 16 6 23 14 19 25 -10 26 -48 17
-84 -20z m-110 -335 c0 -5 7 -10 15 -10 8 0 15 -4 15 -8 0 -15 -24 -9 -42 10
-15 15 -15 18 -3 18 8 0 15 -4 15 -10z m65 -29 c3 -5 1 -12 -5 -16 -5 -3 -10
1 -10 9 0 18 6 21 15 7z m-328 -7 c-3 -3 -12 -4 -19 -1 -8 3 -5 6 6 6 11 1 17
-2 13 -5z m459 -20 c-9 -8 -16 -20 -16 -25 0 -10 -43 -13 -53 -3 -10 10 16 31
34 27 9 -3 20 0 23 6 4 6 12 11 17 11 6 0 3 -7 -5 -16z m-86 2 c0 -2 -7 -6
-15 -10 -8 -3 -15 -1 -15 4 0 6 7 10 15 10 8 0 15 -2 15 -4z m131 -5 c6 11 9
9 9 -7 0 -15 -8 -23 -25 -26 -19 -4 -25 -1 -25 13 0 19 23 32 29 16 2 -5 7 -3
12 4z m44 -11 c-3 -5 -11 -10 -16 -10 -6 0 -7 5 -4 10 3 6 11 10 16 10 6 0 7
-4 4 -10z m-495 -290 c0 -14 28 -12 32 2 3 8 12 4 26 -10 11 -11 40 -24 63
-27 23 -4 48 -13 56 -21 8 -8 20 -14 26 -14 34 -1 39 -17 19 -56 -29 -58 -57
-78 -100 -76 -43 2 -143 51 -139 69 1 6 -1 12 -5 12 -26 3 -28 0 -19 -17 9
-17 7 -18 -25 -8 -39 12 -45 26 -11 26 20 1 20 2 -7 17 -17 8 -44 17 -60 19
-17 1 -33 3 -35 3 -2 1 2 7 8 15 9 10 20 12 39 7 19 -6 31 -4 40 5 7 8 25 14
40 15 27 0 27 1 5 11 -31 15 -29 26 5 31 15 2 30 5 35 6 4 0 7 -3 7 -9z m-150
-30 c0 -5 -7 -10 -16 -10 -8 0 -12 5 -9 10 3 6 10 10 16 10 5 0 9 -4 9 -10z"/>
<path d="M6810 2460 c0 -5 6 -10 14 -10 8 0 18 5 21 10 3 6 -3 10 -14 10 -12
0 -21 -4 -21 -10z"/>
<path d="M8137 3190 c-4 -14 -11 -70 -17 -125 -11 -95 -28 -145 -50 -145 -6 0
-10 -5 -10 -12 0 -6 -9 -22 -21 -34 l-20 -22 38 -28 c21 -16 43 -34 48 -40 21
-24 55 -23 71 1 13 19 15 43 10 122 -6 112 -20 222 -34 273 -9 33 -9 34 -15
10z"/>
<path d="M1279 3083 c-3 -121 4 -409 10 -416 4 -4 17 0 29 10 20 17 21 23 12
98 -4 44 -14 137 -20 208 -12 124 -29 178 -31 100z"/>
<path d="M3415 3100 c-3 -5 3 -10 14 -10 12 0 21 5 21 10 0 6 -6 10 -14 10 -8
0 -18 -4 -21 -10z"/>
<path d="M16436 3085 c8 -37 14 -45 14 -19 0 10 -5 26 -10 34 -8 11 -9 7 -4
-15z"/>
<path d="M1527 3041 c-20 -34 -24 -146 -5 -157 15 -9 67 54 68 82 0 30 26 48
66 47 19 -1 34 3 34 8 0 5 -14 9 -30 9 -17 0 -48 9 -70 20 -22 11 -41 20 -42
20 -2 0 -11 -13 -21 -29z"/>
<path d="M17735 3033 c9 -39 34 -75 46 -67 21 13 -16 94 -44 94 -5 0 -6 -12
-2 -27z"/>
<path d="M16260 3016 c0 -14 29 -31 38 -22 5 5 -23 36 -32 36 -3 0 -6 -6 -6
-14z"/>
<path d="M11493 2958 c-15 -13 -45 -31 -65 -42 -44 -22 -57 -46 -25 -46 28 0
114 50 146 84 l24 26 -25 0 c-15 0 -39 -10 -55 -22z"/>
<path d="M2003 2957 c-33 -17 -31 -33 15 -165 8 -24 23 -49 33 -56 21 -14 161
-21 429 -21 l165 0 48 30 c39 24 50 38 60 75 12 41 12 46 -5 54 -11 5 -22 22
-25 37 -3 15 -13 31 -22 35 -9 4 -99 8 -201 10 -102 1 -250 5 -330 7 -100 4
-152 2 -167 -6z"/>
<path d="M7341 2944 c0 -11 3 -14 6 -6 3 7 2 16 -1 19 -3 4 -6 -2 -5 -13z"/>
<path d="M9243 2898 c-72 -127 -113 -274 -82 -293 6 -4 8 -13 5 -21 -3 -7 4
-23 14 -36 20 -24 26 -18 11 11 -12 22 17 150 48 210 21 39 47 168 37 178 -2
2 -17 -20 -33 -49z"/>
<path d="M16222 2871 c1 -31 -2 -66 -6 -78 -14 -38 22 -28 45 12 15 25 30 36
55 41 19 3 34 12 34 20 0 8 -4 14 -10 14 -5 0 -10 -4 -10 -10 0 -5 -5 -10 -11
-10 -6 0 -8 8 -5 18 4 13 -5 20 -44 33 l-49 17 1 -57z"/>
<path d="M17697 2923 c-11 -10 -8 -53 3 -53 14 0 60 22 60 30 0 22 -47 39 -63
23z"/>
<path d="M16829 2882 c-33 -21 -59 -48 -59 -59 0 -5 10 -17 21 -27 18 -15 23
-15 30 -5 5 8 9 20 9 28 0 8 10 25 22 38 29 31 12 49 -23 25z"/>
<path d="M6740 2865 c0 -8 5 -15 10 -15 6 0 10 7 10 15 0 8 -4 15 -10 15 -5 0
-10 -7 -10 -15z"/>
<path d="M7780 2849 c0 -5 5 -7 10 -4 6 3 10 8 10 11 0 2 -4 4 -10 4 -5 0 -10
-5 -10 -11z"/>
<path d="M11560 2812 c-41 -19 -77 -27 -140 -32 -82 -5 -115 -14 -106 -28 2
-4 24 -7 48 -6 28 0 47 -5 55 -15 11 -14 12 -14 13 2 0 20 11 22 28 5 17 -17
128 19 153 50 19 25 26 53 12 51 -5 0 -33 -12 -63 -27z"/>
<path d="M14343 2833 c-13 -2 -23 -7 -23 -11 0 -4 -3 -17 -6 -29 -5 -18 -2
-23 14 -23 11 0 26 -10 34 -22 21 -31 40 -15 32 27 -3 20 -1 35 5 40 6 3 9 11
6 16 -6 9 -22 10 -62 2z"/>
<path d="M10810 2822 c-30 -6 -32 -8 -15 -16 35 -15 191 -20 200 -7 4 7 5 14
4 16 -9 7 -157 13 -189 7z"/>
<path d="M1515 2810 c-3 -5 -1 -10 4 -10 6 0 11 5 11 10 0 6 -2 10 -4 10 -3 0
-8 -4 -11 -10z"/>
<path d="M6601 2794 c-33 -41 -28 -54 12 -33 25 14 37 28 37 47 0 21 -28 13
-49 -14z"/>
<path d="M14860 2795 c-7 -9 -8 -15 -2 -15 5 0 12 7 16 15 3 8 4 15 2 15 -2 0
-9 -7 -16 -15z"/>
<path d="M12200 2783 c0 -7 -4 -13 -10 -13 -15 0 -12 -26 4 -39 11 -9 12 -6 8
14 -3 17 1 27 12 31 20 8 21 21 1 21 -8 0 -15 -6 -15 -14z"/>
<path d="M7560 2772 c0 -8 43 -32 57 -32 3 0 -6 9 -20 20 -27 22 -37 25 -37
12z"/>
<path d="M14407 2750 c-3 -11 -1 -20 4 -20 5 0 9 9 9 20 0 11 -2 20 -4 20 -2
0 -6 -9 -9 -20z"/>
<path d="M16704 2745 c-14 -10 -16 -17 -7 -23 6 -4 14 -19 17 -34 2 -14 9 -35
15 -46 6 -12 11 -33 11 -49 0 -16 7 -39 16 -51 21 -30 10 -62 -22 -62 -14 0
-27 7 -30 15 -5 11 -10 12 -26 4 -17 -9 -18 -13 -7 -20 21 -13 83 -11 104 5
20 14 22 20 36 114 9 57 8 67 -11 97 -12 19 -30 37 -40 40 -11 4 -20 11 -20
16 0 13 -13 11 -36 -6z"/>
<path d="M7570 2732 c0 -5 11 -19 25 -32 28 -26 33 -16 9 18 -15 22 -34 30
-34 14z"/>
<path d="M15970 2729 c0 -5 5 -7 10 -4 6 3 10 8 10 11 0 2 -4 4 -10 4 -5 0
-10 -5 -10 -11z"/>
<path d="M14830 2715 c-7 -8 -16 -12 -21 -9 -5 3 -6 -2 -3 -10 8 -21 17 -20
32 5 16 25 10 36 -8 14z"/>
<path d="M10930 2688 c-45 -13 -87 -18 -137 -16 -64 3 -73 1 -73 -14 0 -11 10
-20 25 -23 14 -3 36 -7 49 -10 14 -3 36 -1 49 4 17 7 29 6 37 -2 10 -9 11 -9
6 1 -4 6 -3 12 3 12 5 0 11 -5 13 -11 5 -15 47 3 81 35 15 14 35 26 43 26 7 0
14 5 14 10 0 14 -35 11 -110 -12z"/>
<path d="M16026 2682 c0 -16 4 -34 8 -41 5 -7 5 -28 2 -47 -5 -26 -4 -34 8
-34 21 0 28 16 17 37 -6 10 -13 39 -16 66 -7 51 -21 65 -19 19z"/>
<path d="M14735 2670 c-3 -5 -14 -10 -23 -10 -10 0 -23 -10 -31 -21 -11 -19
-10 -28 9 -70 14 -29 28 -45 35 -42 7 2 16 0 20 -6 3 -6 1 -11 -4 -11 -6 0
-11 -5 -11 -11 0 -5 4 -8 9 -4 5 3 13 0 16 -6 15 -24 32 26 26 76 -5 42 -10
51 -28 53 -27 4 -30 27 -7 40 11 6 13 12 6 16 -6 3 -13 2 -17 -4z"/>
<path d="M17797 2645 c-18 -25 -18 -25 17 -61 33 -34 35 -34 41 -14 8 26 -1
70 -15 70 -6 0 -10 7 -10 15 0 22 -12 18 -33 -10z"/>
<path d="M15930 2616 c0 -27 15 -42 25 -26 8 13 -3 50 -16 50 -5 0 -9 -11 -9
-24z"/>
<path d="M14370 2610 c0 -5 7 -10 15 -10 8 0 15 5 15 10 0 6 -7 10 -15 10 -8
0 -15 -4 -15 -10z"/>
<path d="M10412 2590 c0 -14 2 -19 5 -12 2 6 2 18 0 25 -3 6 -5 1 -5 -13z"/>
<path d="M9126 2538 c-5 -29 -17 -139 -18 -179 -3 -55 20 -67 42 -21 15 30 16
33 24 82 4 19 9 43 12 52 5 17 -34 98 -47 98 -4 0 -9 -15 -13 -32z"/>
<path d="M15860 2559 c0 -5 5 -7 10 -4 6 3 10 8 10 11 0 2 -4 4 -10 4 -5 0
-10 -5 -10 -11z"/>
<path d="M10431 2515 c0 -5 6 -46 13 -90 8 -44 11 -84 7 -90 -14 -18 -30 -73
-23 -80 4 -4 7 -11 7 -16 0 -13 118 -178 127 -179 4 0 0 16 -8 35 -8 20 -12
40 -9 45 3 5 -1 28 -10 52 -8 24 -15 57 -15 75 0 17 -4 35 -10 38 -5 3 -10 16
-10 29 0 12 -4 26 -10 32 -5 5 -21 43 -34 84 -14 41 -25 71 -25 65z"/>
<path d="M15140 2490 c0 -5 5 -10 11 -10 5 0 7 5 4 10 -3 6 -8 10 -11 10 -2 0
-4 -4 -4 -10z"/>
<path d="M20275 2475 c-30 -29 -31 -35 -4 -69 25 -32 53 -33 73 -4 22 31 20
51 -7 76 -29 28 -32 27 -62 -3z"/>
<path d="M14376 2467 c-9 -19 -2 -195 8 -204 2 -3 14 1 25 9 18 13 19 17 7 39
-7 13 -11 30 -8 38 2 7 -1 23 -7 34 -6 12 -12 40 -14 62 -2 31 -5 36 -11 22z"/>
<path d="M15273 2461 c-7 -10 -20 -18 -30 -17 -10 0 -18 -6 -18 -14 0 -8 7
-15 15 -15 8 0 21 -6 28 -12 7 -7 23 -13 36 -13 15 0 22 -6 23 -21 2 -17 -1
-19 -10 -10 -6 6 -22 11 -36 11 -25 -1 -26 -1 -6 -16 19 -15 19 -16 2 -29 -11
-7 -25 -11 -32 -9 -7 3 -23 -4 -34 -15 -17 -17 -26 -19 -41 -11 -26 14 -30 13
-30 -9 0 -13 6 -17 23 -15 52 8 136 33 184 55 54 24 74 24 80 -2 6 -20 6 -20
29 2 13 12 24 29 24 37 0 22 -52 67 -109 97 -60 30 -82 31 -98 6z"/>
<path d="M15830 2466 c0 -8 5 -18 10 -21 6 -3 10 3 10 14 0 12 -4 21 -10 21
-5 0 -10 -6 -10 -14z"/>
<path d="M12100 2406 c0 -6 93 -99 115 -115 11 -8 -9 15 -45 52 -62 65 -70 72
-70 63z"/>
<path d="M14865 2370 c3 -5 8 -10 11 -10 2 0 4 5 4 10 0 6 -5 10 -11 10 -5 0
-7 -4 -4 -10z"/>
<path d="M15226 2362 c-2 -4 -1 -14 5 -22 7 -12 9 -10 9 8 0 23 -5 28 -14 14z"/>
<path d="M14890 2321 c0 -15 60 -51 84 -51 13 0 32 -8 41 -17 14 -13 21 -14
36 -5 10 7 33 12 51 13 32 0 32 1 8 10 -14 6 -33 8 -42 6 -25 -7 -100 12 -119
29 -18 16 -59 27 -59 15z"/>
<path d="M1706 2299 c5 -9 -1 -10 -20 -5 -15 4 -26 2 -26 -4 0 -5 16 -10 35
-10 24 0 35 5 35 15 0 8 -7 15 -16 15 -9 0 -12 -5 -8 -11z"/>
<path d="M15757 2303 c-4 -3 -7 -11 -7 -17 0 -6 5 -5 12 2 6 6 9 14 7 17 -3 3
-9 2 -12 -2z"/>
<path d="M6345 2280 c3 -5 10 -10 16 -10 5 0 9 5 9 10 0 6 -7 10 -16 10 -8 0
-12 -4 -9 -10z"/>
<path d="M12000 2285 c0 -2 10 -10 23 -16 20 -11 21 -11 8 4 -13 16 -31 23
-31 12z"/>
<path d="M3000 2266 c0 -9 5 -16 10 -16 6 0 10 4 10 9 0 6 -4 13 -10 16 -5 3
-10 -1 -10 -9z"/>
<path d="M16700 2246 c0 -24 18 -28 30 -6 9 17 8 20 -10 20 -11 0 -20 -6 -20
-14z"/>
<path d="M11397 2229 c-9 -6 -24 -23 -32 -39 -9 -17 -21 -30 -28 -30 -15 -1
-62 -39 -55 -45 2 -2 22 5 43 16 30 16 36 18 26 5 -8 -9 -9 -16 -3 -16 6 0 14
9 17 20 3 11 12 26 18 33 16 18 39 58 35 62 -2 2 -11 -1 -21 -6z"/>
<path d="M10925 2187 c16 -12 31 -21 33 -19 1 2 14 -6 29 -18 14 -11 34 -20
44 -20 11 0 19 -4 19 -10 0 -5 17 -14 38 -19 50 -14 57 -14 42 4 -7 9 -19 14
-27 11 -7 -3 -13 1 -13 9 0 8 -7 15 -16 15 -9 0 -23 8 -32 19 -16 17 -105 51
-134 51 -7 0 0 -11 17 -23z"/>
<path d="M2952 2160 c-18 -11 -30 -25 -27 -30 9 -15 27 -12 55 10 38 29 14 45
-28 20z"/>
<path d="M14906 2165 c4 -9 31 -27 61 -41 40 -19 51 -29 42 -35 -12 -8 -11
-11 1 -19 11 -7 16 -5 18 10 2 11 10 20 18 20 8 0 14 7 14 16 0 11 6 15 20 11
11 -3 22 -2 25 3 6 9 -29 20 -70 20 -16 0 -48 7 -70 15 -52 18 -66 18 -59 0z"/>
<path d="M16592 2155 c-6 -14 -7 -25 -2 -25 9 0 25 39 18 46 -3 2 -10 -7 -16
-21z"/>
<path d="M2836 2163 c-12 -12 -6 -33 9 -33 8 0 15 6 15 14 0 17 -14 28 -24 19z"/>
<path d="M16635 2159 c-4 -6 -5 -13 -2 -16 7 -7 27 6 27 18 0 12 -17 12 -25
-2z"/>
<path d="M11220 2109 c0 -5 5 -7 10 -4 6 3 10 8 10 11 0 2 -4 4 -10 4 -5 0
-10 -5 -10 -11z"/>
<path d="M6195 2090 c3 -5 8 -10 11 -10 2 0 4 5 4 10 0 6 -5 10 -11 10 -5 0
-7 -4 -4 -10z"/>
<path d="M2105 2080 c3 -5 13 -10 21 -10 8 0 14 5 14 10 0 6 -9 10 -21 10 -11
0 -17 -4 -14 -10z"/>
<path d="M6215 2060 c3 -5 11 -10 16 -10 6 0 7 5 4 10 -3 6 -11 10 -16 10 -6
0 -7 -4 -4 -10z"/>
<path d="M6106 1994 c-12 -32 -6 -49 19 -50 29 -2 30 -2 10 36 -18 34 -21 36
-29 14z"/>
<path d="M6265 1978 c-4 -10 -4 -26 0 -35 8 -17 8 -17 12 0 3 9 3 25 0 35 -4
16 -4 16 -12 0z"/>
<path d="M8410 1930 c-12 -7 -12 -12 0 -35 15 -29 34 -28 38 2 4 25 -19 45
-38 33z"/>
<path d="M14447 1913 c-4 -3 -7 -11 -7 -17 0 -6 5 -5 12 2 6 6 9 14 7 17 -3 3
-9 2 -12 -2z"/>
<path d="M6250 1813 c0 -5 4 -14 9 -22 6 -9 5 -23 -2 -38 -14 -31 -3 -39 28
-19 30 20 34 61 6 76 -23 12 -41 13 -41 3z"/>
<path d="M6635 1811 c-3 -5 -1 -12 5 -16 5 -3 10 1 10 9 0 18 -6 21 -15 7z"/>
<path d="M0 1734 c0 -45 4 -64 13 -64 7 0 29 -11 50 -25 l37 -26 9 24 c12 32
43 36 256 38 127 2 154 4 105 9 -36 4 -94 5 -130 2 -59 -4 -63 -3 -45 11 10 8
26 12 35 9 10 -3 12 -2 5 6 -5 6 -59 14 -120 17 -94 6 -118 11 -162 35 l-53
28 0 -64z"/>
<path d="M10885 1726 l59 -58 61 32 c79 43 83 48 50 56 -20 5 -30 3 -37 -9
-13 -24 -106 -16 -154 14 -35 21 -33 17 21 -35z"/>
<path d="M6636 1746 c-3 -15 -1 -36 5 -48 12 -21 9 -126 -7 -300 -8 -84 10
-94 21 -12 4 31 9 68 13 83 11 47 3 236 -11 271 l-14 32 -7 -26z"/>
<path d="M6163 1723 c-21 -8 -15 -29 12 -43 22 -12 28 -12 42 3 16 16 16 18
-2 32 -21 15 -32 17 -52 8z"/>
<path d="M15346 1715 c4 -8 8 -15 10 -15 2 0 4 7 4 15 0 8 -4 15 -10 15 -5 0
-7 -7 -4 -15z"/>
<path d="M693 1689 c-10 -4 10 -8 47 -8 68 1 71 5 8 11 -20 2 -45 1 -55 -3z"/>
<path d="M6166 1553 c-13 -13 -5 -28 20 -40 30 -14 46 -9 38 11 -6 16 -49 37
-58 29z"/>
<path d="M8262 1463 c-12 -53 -10 -88 9 -172 1 -3 5 19 9 49 11 75 12 180 2
180 -4 0 -14 -26 -20 -57z"/>
<path d="M6173 1483 c-19 -7 -16 -40 3 -47 10 -4 25 1 36 11 18 16 18 18 2 30
-19 14 -22 14 -41 6z"/>
<path d="M17376 1383 c-1 -1 -17 -4 -36 -7 -19 -3 -57 -10 -85 -15 -27 -5 -56
-10 -63 -10 -7 -1 -10 -5 -7 -11 8 -13 133 -12 215 1 36 6 77 12 93 12 26 0
27 1 11 18 -18 20 -29 25 -19 9 4 -6 -5 -10 -19 -10 -14 0 -26 4 -26 9 0 7
-57 11 -64 4z"/>
<path d="M17527 1371 c5 -21 23 -29 23 -11 0 12 47 13 54 1 3 -5 33 -12 66
-16 33 -4 58 -12 57 -17 -4 -18 20 -20 27 -2 8 22 -10 34 -50 34 -17 0 -34 3
-38 8 -4 4 -20 7 -34 8 -15 0 -46 4 -69 8 -39 7 -41 6 -36 -13z"/>
<path d="M17800 1369 c0 -6 7 -18 16 -27 15 -15 18 -14 30 3 13 17 12 20 -3
27 -27 10 -43 9 -43 -3z"/>
<path d="M2585 1300 c3 -5 8 -10 11 -10 2 0 4 5 4 10 0 6 -5 10 -11 10 -5 0
-7 -4 -4 -10z"/>
<path d="M6786 1229 c-2 -8 -7 -25 -9 -39 -10 -47 -16 -65 -35 -103 -26 -50
-42 -68 -53 -61 -5 3 -9 -2 -9 -10 0 -9 -4 -16 -10 -16 -5 0 -10 -8 -10 -18 0
-26 -92 -204 -131 -253 -34 -43 -33 -60 3 -83 12 -7 24 -1 51 27 19 20 39 37
44 37 5 0 18 16 29 36 10 20 28 53 39 74 11 20 25 44 31 51 6 8 14 27 18 44 4
16 13 36 19 44 14 17 37 94 42 141 2 19 7 53 10 76 5 30 3 44 -9 53 -13 11
-17 11 -20 0z"/>
<path d="M18880 1155 c-58 -36 -114 -69 -126 -74 -11 -5 -37 -21 -58 -35 -24
-16 -47 -24 -60 -21 -13 3 -52 -10 -99 -33 -77 -38 -80 -38 -127 -26 -27 7
-58 18 -69 24 -19 10 -24 7 -39 -21 -33 -61 -61 -87 -88 -84 -14 1 -39 -2 -55
-8 -24 -10 -33 -8 -59 11 -17 13 -35 20 -40 17 -14 -8 -13 -62 2 -101 9 -25 9
-39 0 -56 -31 -65 -40 -189 -17 -245 8 -20 15 -66 15 -104 0 -56 -5 -77 -24
-107 -38 -61 -68 -133 -63 -153 3 -10 -3 -29 -13 -41 -18 -24 -50 -83 -50 -93
0 -3 20 -5 44 -5 l43 0 30 68 c17 37 34 78 38 92 4 14 17 37 29 51 11 15 26
34 31 44 16 27 53 11 63 -28 7 -27 10 -29 15 -12 3 11 18 101 32 200 24 173
42 247 71 304 8 14 14 31 14 36 0 6 9 21 20 35 19 25 40 32 51 17 13 -19 93
21 162 80 39 35 88 68 107 74 90 28 161 73 238 147 84 82 110 112 96 112 -5
-1 -56 -30 -114 -65z m-670 -301 c0 -16 -16 -19 -25 -4 -8 13 4 32 16 25 5 -4
9 -13 9 -21z m119 -41 c-18 -56 -21 -63 -30 -63 -17 0 -9 62 9 76 26 20 31 17
21 -13z m-89 7 c0 -5 -4 -10 -10 -10 -5 0 -10 5 -10 10 0 6 5 10 10 10 6 0 10
-4 10 -10z m28 -25 c-6 -14 -13 -23 -15 -21 -5 5 15 46 22 46 3 0 -1 -11 -7
-25z m-50 -217 c-27 -56 -32 -60 -24 -18 5 28 28 60 42 60 1 0 -7 -19 -18 -42z
m-108 -239 c-19 -42 -20 -42 -14 -10 6 30 24 63 32 56 1 -1 -7 -22 -18 -46z
m-80 -199 c0 -16 -23 -60 -32 -60 -11 0 -10 14 4 45 11 25 28 34 28 15z"/>
<path d="M5867 1191 c3 -12 9 -21 14 -21 14 0 11 16 -5 29 -12 10 -13 8 -9 -8z"/>
<path d="M18106 1143 c-8 -9 34 -53 51 -53 18 0 16 14 -4 32 -27 22 -39 28
-47 21z"/>
<path d="M6695 1070 c-3 -5 1 -10 9 -10 9 0 16 5 16 10 0 6 -4 10 -9 10 -6 0
-13 -4 -16 -10z"/>
<path d="M7751 974 c-11 -15 -21 -31 -21 -36 0 -17 223 12 234 31 3 4 -25 4
-62 0 -70 -7 -87 -5 -113 18 -15 12 -19 11 -38 -13z"/>
<path d="M20262 978 c5 -15 28 -23 28 -10 0 5 -7 13 -16 16 -10 4 -14 1 -12
-6z"/>
<path d="M20321 924 c13 -15 71 -72 128 -128 124 -121 245 -261 313 -359 90
-132 156 -233 182 -283 14 -27 35 -65 46 -84 11 -19 20 -43 20 -52 0 -17 19
-18 275 -18 l276 0 -73 64 c-40 35 -102 96 -138 136 -36 40 -69 77 -75 81 -53
43 -95 86 -95 96 0 8 -8 17 -17 20 -10 4 -21 11 -24 16 -18 27 -32 -15 -54
-168 -7 -44 -44 -130 -45 -102 0 9 -4 17 -10 17 -5 0 -10 7 -10 15 0 8 -16 27
-35 42 -19 15 -40 40 -46 55 -6 16 -15 28 -19 28 -5 0 -18 20 -30 45 -12 25
-26 45 -31 45 -5 0 -9 5 -9 11 0 9 -54 93 -70 109 -3 3 -32 36 -65 74 -33 39
-82 90 -109 115 -28 25 -63 58 -78 72 -15 15 -46 42 -69 60 -22 19 -50 42 -62
53 -77 65 -121 88 -76 40z m716 -906 c-3 -8 -6 -5 -6 6 -1 11 2 17 5 13 3 -3
4 -12 1 -19z"/>
<path d="M7633 825 c-92 -91 -163 -151 -190 -159 -13 -4 -23 -12 -23 -17 0 -5
-7 -9 -15 -9 -9 0 -49 -33 -90 -72 -42 -40 -85 -76 -98 -80 -33 -9 -59 -9 -53
1 3 5 -14 12 -39 15 -25 4 -45 11 -45 17 0 5 -6 9 -14 9 -8 0 -27 5 -43 11
-22 8 -25 12 -13 20 11 8 9 9 -9 4 -14 -5 -21 -3 -17 3 8 13 -61 30 -176 42
-95 10 -98 9 -143 -15 -25 -14 -59 -27 -75 -28 -19 -1 -28 -7 -26 -14 3 -7 1
-15 -4 -18 -7 -4 -6 -13 0 -25 14 -26 -5 -36 -33 -17 -40 27 -64 52 -81 85
-19 37 -56 45 -56 12 0 -11 -4 -20 -10 -20 -5 0 -10 -7 -10 -16 0 -9 -9 -18
-20 -21 -25 -7 -26 -19 -1 -33 11 -5 21 -20 23 -32 2 -14 12 -24 27 -28 14 -3
31 -19 40 -38 20 -40 35 -41 29 -2 -3 20 0 30 8 30 7 0 19 3 28 6 11 4 16 0
16 -14 0 -11 5 -22 11 -24 6 -2 14 -22 18 -43 6 -34 10 -40 30 -37 13 1 36 16
51 32 15 17 32 30 37 30 5 0 24 16 43 36 76 78 190 110 286 81 59 -18 188 -96
207 -126 9 -14 31 -44 47 -66 17 -22 44 -69 61 -105 17 -36 39 -84 50 -106 11
-23 28 -49 39 -59 20 -18 20 -17 20 30 0 26 7 88 17 138 14 77 21 96 51 129
19 21 37 38 41 38 14 0 245 130 252 142 5 7 9 29 9 50 0 33 -4 38 -42 56 -24
11 -60 26 -81 33 -21 7 -45 21 -54 31 -14 16 -13 17 13 23 76 15 79 18 78 60
-1 25 6 50 18 68 11 16 19 29 17 30 -2 2 -12 9 -21 16 -15 11 -25 5 -85 -54z"/>
<path d="M5983 765 c-2 -8 0 -30 7 -49 6 -20 11 -60 11 -91 0 -30 5 -55 10
-55 5 0 9 4 9 9 0 5 9 13 20 16 11 4 20 15 20 27 0 11 11 29 25 40 28 22 33
59 9 82 -14 14 -26 19 -87 31 -10 2 -21 -3 -24 -10z m87 -69 c0 -31 -28 -56
-41 -35 -12 19 -11 33 3 47 19 19 38 14 38 -12z"/>
<path d="M2573 753 c-18 -6 -16 -23 1 -23 17 0 30 16 19 23 -5 2 -14 2 -20 0z"/>
<path d="M9242 428 c-1 -58 -9 -120 -27 -188 -26 -104 -45 -143 -85 -170 -57
-39 -57 -39 -29 -40 15 0 29 -7 33 -15 6 -17 71 -21 81 -5 3 5 1 19 -5 30 -11
20 -1 89 45 344 12 66 12 83 1 105 -12 22 -14 17 -14 -61z"/>
<path d="M2655 420 c-19 -8 -19 -9 3 -9 12 -1 22 4 22 9 0 6 -1 10 -2 9 -2 0
-12 -4 -23 -9z"/>
<path d="M2588 379 c-2 -6 -21 -12 -43 -13 -22 -1 -66 -14 -99 -29 -32 -15
-61 -27 -63 -27 -2 0 -10 -6 -17 -13 -10 -10 3 -13 68 -15 l81 -3 43 41 c24
22 48 40 53 40 4 0 6 7 3 15 -7 17 -21 20 -26 4z"/>
<path d="M11340 360 c0 -5 12 -10 26 -10 14 0 23 4 19 10 -3 6 -15 10 -26 10
-10 0 -19 -4 -19 -10z"/>
<path d="M10865 290 c-3 -5 1 -10 9 -10 8 0 18 5 21 10 3 6 -1 10 -9 10 -8 0
-18 -4 -21 -10z"/>
<path d="M2889 168 c-8 -18 -14 -40 -14 -48 -1 -8 -7 -14 -13 -12 -22 4 -51
-17 -69 -51 -28 -52 -26 -57 23 -57 39 0 49 5 84 42 41 42 49 76 16 70 -14 -3
-16 0 -7 17 6 11 16 23 21 26 6 3 10 15 10 26 0 32 -36 23 -51 -13z"/>
<path d="M18180 138 c0 -23 3 -39 6 -36 9 10 12 78 3 78 -5 0 -9 -19 -9 -42z"/>
<path d="M8687 127 c-4 -15 -12 -25 -17 -22 -6 3 -10 -1 -10 -9 0 -14 46 -34
54 -25 2 2 -2 22 -8 44 -12 40 -12 40 -19 12z"/>
<path d="M2648 114 c-37 -20 -160 -50 -253 -63 -105 -15 -337 -13 -413 3 l-63
13 3 -31 3 -31 383 -3 382 -2 0 55 c0 30 0 58 1 62 1 13 -15 11 -43 -3z"/>
<path d="M9017 116 c-17 -13 -17 -14 0 -21 10 -5 23 -7 28 -5 6 1 22 2 37 1
24 -1 46 14 36 24 -13 13 -85 14 -101 1z"/>
<path d="M7005 60 c-22 -10 -62 -19 -90 -19 -27 -1 -67 -6 -88 -12 -22 -6 -76
-14 -120 -18 -61 -6 -12 -9 191 -10 169 0 272 3 272 9 0 10 -36 33 -59 36 -8
2 -18 10 -23 18 -11 20 -33 19 -83 -4z"/>
<path d="M8677 17 c-25 -11 -19 -12 55 -14 l83 -1 -45 14 c-54 16 -57 16 -93
1z"/>
</g>
</svg>
