<svg width="45" height="44" viewBox="0 0 45 44" fill="none" xmlns="http://www.w3.org/2000/svg">
<path d="M42.1177 20.8781L37.8965 22.9801L32.4277 12.5212L36.7002 10.3849C37.0177 10.2231 37.3863 10.1933 37.7257 10.3022C38.065 10.411 38.3476 10.6496 38.5117 10.966L42.7158 19.0153C42.8011 19.1764 42.8532 19.353 42.8693 19.5346C42.8853 19.7162 42.8648 19.8991 42.8091 20.0727C42.7534 20.2462 42.6635 20.4069 42.5447 20.5452C42.426 20.6835 42.2808 20.7967 42.1177 20.8781V20.8781Z" stroke="white" stroke-width="2" stroke-linecap="round" stroke-linejoin="round"/>
<path d="M7.81795 22.8091L3.59676 20.6899C3.43422 20.6103 3.28937 20.4987 3.1708 20.362C3.05224 20.2252 2.96238 20.066 2.90658 19.8938C2.85078 19.7216 2.83017 19.54 2.84598 19.3597C2.86179 19.1794 2.9137 19.0041 2.99861 18.8442L7.20271 10.7949C7.36717 10.4788 7.64855 10.2394 7.98691 10.1277C8.32527 10.0159 8.69388 10.0407 9.01424 10.1968L13.2867 12.333L7.81795 22.8091Z" stroke="white" stroke-width="2" stroke-linecap="round" stroke-linejoin="round"/>
<path d="M37.8965 22.9802L35.1621 26.1931L28.873 32.4822C28.7016 32.6425 28.494 32.7588 28.2678 32.8213C28.0416 32.8838 27.8036 32.8906 27.5742 32.8411L17.6621 30.363C17.481 30.3126 17.3123 30.2253 17.1665 30.1067L7.81836 22.8093" stroke="white" stroke-width="2" stroke-linecap="round" stroke-linejoin="round"/>
<path d="M35.1627 26.1929L27.6432 20.7241L25.4557 22.3648C24.5079 23.0721 23.357 23.4543 22.1744 23.4543C20.9918 23.4543 19.8409 23.0721 18.8932 22.3648L17.9703 21.6641C17.8143 21.5454 17.6852 21.395 17.5916 21.2227C17.4981 21.0505 17.4422 20.8603 17.4276 20.6648C17.4131 20.4693 17.4402 20.2729 17.5073 20.0887C17.5743 19.9045 17.6797 19.7366 17.8165 19.5962L24.5157 12.9141C24.6416 12.7888 24.7909 12.6897 24.9551 12.6222C25.1193 12.5548 25.2952 12.5204 25.4728 12.521H32.4283" stroke="white" stroke-width="2" stroke-linecap="round" stroke-linejoin="round"/>
<path d="M13.3896 12.3331L22.1567 9.76965C22.4683 9.68031 22.8014 9.70454 23.0967 9.83801L29.0098 12.5211" stroke="white" stroke-width="2" stroke-linecap="round" stroke-linejoin="round"/>
<path d="M20.123 36.4469L14.979 35.1481C14.7694 35.1007 14.5753 35.0007 14.415 34.8575L10.5527 31.5079" stroke="white" stroke-width="2" stroke-linecap="round" stroke-linejoin="round"/>
</svg>
