<svg width="44" height="44" viewBox="0 0 44 44" fill="none" xmlns="http://www.w3.org/2000/svg">
<path d="M26.0625 6.31262V15.7189H35.4688" stroke="#C6542D" stroke-width="2" stroke-linecap="round" stroke-linejoin="round"/>
<path d="M25.3906 22.4376L29.4219 26.4689L25.3906 30.5001" stroke="#C6542D" stroke-width="2" stroke-linecap="round" stroke-linejoin="round"/>
<path d="M18.6719 22.4376L14.6406 26.4689L18.6719 30.5001" stroke="#C6542D" stroke-width="2" stroke-linecap="round" stroke-linejoin="round"/>
<path d="M34.125 38.5626C34.4814 38.5626 34.8232 38.421 35.0752 38.169C35.3272 37.917 35.4688 37.5753 35.4688 37.2189V15.7189L26.0625 6.31262H9.9375C9.58112 6.31262 9.23933 6.4542 8.98733 6.7062C8.73532 6.9582 8.59375 7.29999 8.59375 7.65637V37.2189C8.59375 37.5753 8.73532 37.917 8.98733 38.169C9.23933 38.421 9.58112 38.5626 9.9375 38.5626H34.125Z" stroke="#C6542D" stroke-width="2" stroke-linecap="round" stroke-linejoin="round"/>
</svg>
